<?xml version="1.0" encoding="UTF-8"?>
<svg id="alternatieve_logo_s" data-name="alternatieve logo&amp;apos;s" xmlns="http://www.w3.org/2000/svg" xmlns:xlink="http://www.w3.org/1999/xlink" viewBox="0 0 1068.38 605.35">
  <defs>
    <style>
      .cls-1 {
        fill: #312783;
      }

      .cls-1, .cls-2, .cls-3 {
        stroke-width: 0px;
      }

      .cls-2 {
        fill: none;
      }

      .cls-4 {
        clip-path: url(#clippath);
      }

      .cls-3 {
        fill: #fff;
      }
    </style>
    <clipPath id="clippath">
      <rect class="cls-2" x="33.62" y="42.46" width="982.07" height="520.42"/>
    </clipPath>
  </defs>
  <g class="cls-4">
    <path class="cls-3" d="M131.35,358.05c2.92,6,5.85,12,8.77,18.01,6.98,14.33,13.97,28.66,20.95,42.99,8.49,17.42,16.98,34.85,25.47,52.27,7.34,15.07,14.69,30.13,22.03,45.2,3.55,7.28,6.78,14.86,10.7,21.95.05.1.1.2.15.3.99,2.03,1.56-1.21,1.67-1.99.29-2.17.57-5.5-.44-7.57-2.92-6-5.85-12-8.77-18.01-6.98-14.33-13.97-28.66-20.95-42.99-8.49-17.42-16.98-34.85-25.47-52.27-7.34-15.07-14.69-30.14-22.03-45.2-3.55-7.28-6.78-14.86-10.7-21.95-.05-.1-.1-.2-.15-.3-.99-2.03-1.56,1.21-1.67,1.99-.29,2.17-.57,5.5.44,7.57"/>
    <path class="cls-3" d="M267.4,309.98c6.43,19.44,12.85,38.88,19.28,58.31,10.18,30.78,20.36,61.55,30.53,92.33,2.35,7.1,4.69,14.2,7.04,21.3.75,2.26,1.59-1.44,1.67-1.99.32-2.43.34-5.22-.44-7.57-6.43-19.44-12.85-38.88-19.28-58.31-10.18-30.78-20.36-61.55-30.53-92.33-2.35-7.1-4.69-14.2-7.04-21.3-.75-2.25-1.59,1.44-1.66,1.99-.32,2.43-.34,5.22.44,7.57"/>
    <path class="cls-3" d="M163.23,354.94c7.77,17.39,15.54,34.78,23.31,52.17,12.39,27.73,24.78,55.46,37.17,83.2,2.85,6.38,5.7,12.77,8.56,19.15,1.14,2.54,4.04,3.21,6.57,2.41,2.05-.65,5.13-3.2,3.99-5.74-7.77-17.39-15.54-34.78-23.31-52.17-12.39-27.73-24.78-55.46-37.17-83.2-2.85-6.38-5.7-12.77-8.56-19.15-1.13-2.54-4.04-3.21-6.56-2.41-2.05.65-5.13,3.2-3.99,5.74"/>
    <path class="cls-3" d="M232.02,318.95c6.65,17.89,13.3,35.78,19.95,53.67,10.56,28.4,21.12,56.79,31.67,85.19,2.42,6.51,4.84,13.02,7.26,19.53,1.19,3.2,11.76,1.49,11.06-.39-6.65-17.89-13.3-35.78-19.96-53.67-10.56-28.39-21.11-56.79-31.67-85.19-2.42-6.51-4.84-13.02-7.26-19.53-1.19-3.2-11.76-1.49-11.06.39"/>
    <path class="cls-3" d="M198.33,337.55c7.22,19.03,14.44,38.07,21.65,57.1,11.49,30.3,22.98,60.59,34.46,90.89,2.62,6.9,5.23,13.8,7.85,20.69.9,2.38,3.46,4.18,5.81,4.94,1.39.45,4.5.58,3.59-1.83-7.22-19.03-14.44-38.07-21.65-57.1-11.49-30.3-22.98-60.59-34.46-90.89-2.62-6.9-5.23-13.8-7.85-20.7-.9-2.37-3.46-4.18-5.81-4.94-1.39-.45-4.5-.58-3.59,1.83"/>
    <path class="cls-3" d="M35.1,253.18c5.54,10.2,11.07,20.4,16.61,30.59,13.29,24.48,26.58,48.96,39.88,73.43,15.98,29.43,31.96,58.85,47.94,88.28,13.88,25.56,27.77,51.13,41.65,76.7,4.55,8.38,9.1,16.75,13.64,25.13,2.11,3.89,3.95,8.32,6.49,11.96.11.16.2.36.29.54.53.97,3.62,1.34,4.42,1.49,1.79.34,3.7.64,5.52.41,10.69-1.34,21.31-3.95,31.7-6.73,25.06-6.68,49.47-16.08,72.43-28.14,16.46-8.65,32.14-18.73,46.72-30.26.08-.08.16-.16.24-.24-3.3-10.84-6.6-21.68-9.9-32.52-7.92-26.03-15.85-52.07-23.77-78.1-9.58-31.49-19.17-62.99-28.75-94.48-8.28-27.22-16.57-54.44-24.85-81.65-2.72-8.93-5.43-17.85-8.15-26.78-1.28-4.21-2.22-8.78-3.91-12.84-.07-.17-.11-.36-.17-.54-.54-1.78-9.38-3.25-10.68-2.05-10.71,9.89-23.16,18.22-35.46,25.95-30.91,19.43-64.69,34.36-99.74,44.54-26.56,7.71-53.91,12.55-81.48,14.64-2.34.18,1.33,1.62,1.73,1.73,2.42.69,5.02,1.05,7.53.86,45.75-3.47,90.84-14.67,132.82-33.21,25.93-11.45,50.93-25.58,73.5-42.78,3.95-3.01,7.9-6.08,11.55-9.45-3.56-.68-7.12-1.36-10.68-2.05,1.44,4.73,2.88,9.46,4.32,14.19l11.32,37.19c5.35,17.58,10.7,35.16,16.05,52.74,6.1,20.04,12.2,40.09,18.3,60.13,6.12,20.09,12.23,40.19,18.35,60.28,5.3,17.4,10.59,34.8,15.89,52.2,3.73,12.27,7.47,24.54,11.2,36.8,1.02,3.36,2.05,6.72,3.07,10.07.25.82.66,1.71.78,2.56.24,1.66-1.09,1.76-2.65,2.96-26.91,20.75-57.52,36.51-89.52,47.77-17.63,6.21-35.86,11.31-54.35,14.22-.89.14-1.79.28-2.68.39,3.31.63,6.63,1.26,9.94,1.89-5.54-10.2-11.07-20.39-16.61-30.59-13.29-24.48-26.58-48.95-39.88-73.43-15.98-29.43-31.96-58.85-47.94-88.28-13.88-25.57-27.77-51.13-41.65-76.7-4.55-8.38-9.1-16.75-13.64-25.13-2.11-3.89-3.95-8.32-6.49-11.96-.11-.16-.2-.36-.29-.53-.78-1.45-5.17-1.67-6.6-1.83-.6-.07-4.64-.49-4.02.64"/>
    <path class="cls-3" d="M85.03,334.48c16.78-.98,33.59-3.81,50.03-7.14,34.82-7.07,69.3-17.9,100.44-35.25,18.83-10.49,36.35-23.47,50.61-39.72-2.48-1-4.95-1.99-7.43-2.99,4.1,13.46,8.2,26.93,12.29,40.4,8.87,29.14,17.74,58.29,26.61,87.43,8.59,28.21,17.17,56.42,25.76,84.64,2.6,8.55,5.2,17.1,7.81,25.65.6,1.97,1.04,4.13,1.84,6.03.03.08.21.91.28.91.57.06.58-.92.35-.99-.06-.02-.28.23-.34.26-.6.25-1.22.9-1.74,1.29-15.99,11.69-33.06,22.05-50.64,31.16-12.25,6.35-24.82,12.19-37.86,16.72-12.31,4.27-24.96,7.44-37.65,10.37-7.11,1.64-14.24,3.21-21.37,4.8,2.22.89,4.43,1.79,6.65,2.68-4.13-7.61-8.27-15.22-12.4-22.83-9.83-18.11-19.67-36.22-29.5-54.33-11.98-22.06-23.96-44.12-35.94-66.18-10.32-19-20.63-38-30.95-57-5.01-9.22-9.78-18.63-15.05-27.71-.07-.13-.14-.26-.21-.39-.91-1.68-3.12-2.72-4.98-2.84-1.24-.08-3.43.47-2.49,2.2,4.13,7.61,8.26,15.22,12.4,22.83,9.83,18.11,19.67,36.22,29.5,54.33,11.98,22.06,23.96,44.12,35.94,66.18,10.32,19,20.63,38,30.95,57,5.01,9.22,9.78,18.63,15.05,27.71.07.13.14.26.21.39,1.2,2.21,4.31,3.2,6.65,2.68,25.51-5.71,51.18-11.03,75.25-21.54,22.31-9.75,43.69-21.8,63.85-35.44,3.97-2.69,7.94-5.41,11.75-8.32.33-.28.47-.64.43-1.07-2.48-8.16-4.97-16.32-7.45-24.48-5.93-19.5-11.87-39-17.8-58.5-7.18-23.58-14.35-47.15-21.52-70.72-6.21-20.38-12.41-40.77-18.61-61.15-3.02-9.93-6.04-19.86-9.07-29.79-.04-.14-.09-.29-.13-.43-.63-2.06-5.51-5.18-7.43-2.99-25.1,28.58-59.76,46.96-95.22,59.44-27.81,9.79-56.82,16.29-86.06,19.97-5.68.72-11.39,1.39-17.11,1.72-1.77.1-2.12,1.58-1.15,2.85,1.18,1.53,3.58,2.3,5.45,2.19"/>
    <path class="cls-3" d="M252.14,166.24c.36.98-.21-1.24-.12-.5.06.55.1-1.48,0-.42-.09.85-.2.3.13-.27-.18.32-.3.72-.46,1.05-.15.31-.35.6-.52.89.53-.92.33-.47-.11.07-.64.79-1.3,1.56-2.01,2.3-.74.77-1.52,1.5-2.32,2.21-.44.39-.89.78-1.34,1.16.76-.64-.83.66-1.02.81-2.39,1.88-4.87,3.65-7.39,5.35-14.84,10.01-30.96,18.2-47.11,25.87-20.96,9.94-42.45,18.79-64.28,26.62-18.36,6.59-37.05,12.63-56.14,16.74-6.46,1.39-12.22,2.48-18.37,2.82-1.13.06-2.26.1-3.39.08-.51,0-1.01-.02-1.52-.05-.42-.02-2.29-.27-.69-.02-.77-.12-1.51-.34-2.27-.47-1.27-.22.88.38.17.09-.6-.25-1.4-1.05.12.21-.86-.71.55,1.02.53.97-.38-.95.19,1.08.12.5-.07-.64-.14,1.54.02.32.14-1.04-.12.29-.1.27.16-.25.22-.58.37-.84.17-.29.34-.59.5-.89-.4.74-.33.43.28-.31,1.3-1.58,2.71-3.02,4.24-4.39.44-.39.89-.78,1.34-1.16-.72.6.57-.46.82-.66,1.23-.98,2.49-1.92,3.77-2.84,13.6-9.82,28.7-17.67,43.73-25.05,20.57-10.1,41.71-19.05,63.18-27.06,19.13-7.13,38.6-13.66,58.47-18.42,6.65-1.59,14.43-3.22,20.47-3.86,2.47-.26,4.96-.44,7.45-.39.5,0,1,.03,1.5.06.35.02,2.14.27.51,0,.8.13,1.59.39,2.39.51,1.13.17-1.17-.49-.19-.08.31.13,1.09.77.22.05-.77-.63.06.61-.39-.36-.1-.22-.47-.65-.59-.93,1.14,2.58,3.94,4.5,6.83,3.72,2.66-.72,4.13-3.82,3.01-6.36-4.52-10.28-20.78-7.02-29.27-5.66-19.06,3.04-37.74,8.91-55.97,15.11-23.65,8.05-46.9,17.4-69.6,27.83-17.94,8.24-35.84,17.1-52.36,27.96-5.28,3.47-10.55,7.2-15.1,11.62-2.78,2.7-5.68,6.11-6.02,10.13-1.03,12.27,16.37,11.21,24.02,10.28,18.22-2.22,36.08-7.52,53.48-13.17,23.83-7.73,47.21-16.9,70.1-27.07,18.85-8.38,37.56-17.43,55.13-28.29,6.06-3.75,11.98-7.75,17.41-12.38,3.12-2.66,6.56-5.83,8.04-9.77.81-2.15.94-4.42.13-6.6-2.28-6.16-12.34-4.09-9.84,2.64"/>
    <path class="cls-3" d="M670.56,414.07c-10.49-3.17-21.01-6.24-31.59-9.08-3.6-.96-7.2-1.91-10.83-2.76-1.74-.41-4.19-1.39-6.01-1.18-2.72.31-.12,6.5.46,7.85.93,2.16,2,2.64,4.04,3.46,6.84,2.78,13.95,4.97,20.97,7.23,20.43,6.57,41.03,12.8,61.85,18.04,2.68.67,5.36,1.34,8.07,1.9.69.14,2.62.85,3.31.43.79-.48.42-2.12.33-2.81-.3-2.12-.89-5.08-2.33-6.76-.58-.68-1.29-.99-2.1-1.35-4.7-2.07-9.71-3.55-14.58-5.14-10.48-3.41-21.03-6.63-31.58-9.83-1.35-.41-.5,3.27-.38,3.82.24,1.13,1,5.43,2.45,5.87,12.2,3.69,24.41,7.39,36.49,11.45,2.86.96,5.72,1.92,8.52,3.04.72.29,1.42.6,2.11.92.17.08.35.24.53.3.06.02.1.11.16.12-.06-.06-.11-.12-.17-.18-1.13-1.17-1.56-2.72-1.27-4.66-1.81-1.92-2.14-3.45-1-4.59.11-.1.14-.14.09-.1-1.71-.5-3.92-.54-5.73-.95-5.05-1.15-10.06-2.48-15.06-3.83-15.6-4.21-31.08-8.83-46.49-13.7-6.75-2.13-13.49-4.3-20.17-6.65-2.04-.72-4.08-1.44-6.09-2.26-.59-.24-1.19-.47-1.76-.76-1.4-.71-.86-1.03.26,1.43.5,2.29.99,4.58,1.49,6.87-.02,2.11-.58.3.04.7.15.09.66.06.84.08.99.11,1.97.34,2.94.55,3.46.74,6.9,1.63,10.32,2.53,11.38,2.98,22.68,6.28,33.94,9.69,1.35.41.5-3.27.38-3.82-.24-1.12-1-5.43-2.45-5.87"/>
    <path class="cls-3" d="M698.92,284.05c5.75,2.22,11.42,4.48,17.45,4.17,49.13-2.52,81.62-62.82,85.46-85.1.98-5.68-3.38-7.67-7.5,3.37-4.93,13.19-19.52,9.95-35.32,8.71-24.77-1.95-38.68,19.81-55.07,20.97-14.77,1.05-26.94-2.85-32.03-4.83-1.23-.48-2.49.52-2.36,1.85.55,5.5,2.58,17.99,9.96,31.25.03.05.05.09.08.14.75,1.14,10.78,16.17,19.32,19.47"/>
    <path class="cls-3" d="M699.95,288.9c3.61,1.4,7.24,2.82,11.03,3.65,3.7.81,7.36.7,11.09.25,6.68-.81,13.2-2.73,19.32-5.49,11.93-5.39,22.24-13.83,31.04-23.43,8.47-9.24,15.66-19.7,21.46-30.8,4.15-7.95,8.08-16.58,9.61-25.49.57-3.29-.13-6.75-1.3-9.84-.56-1.48-1.52-4.34-3.58-4.14-1.99.19-3.53,3.08-4.31,4.58-1.67,3.19-2.43,6.73-5.17,9.25-4.7,4.33-11.85,4.31-17.83,3.99-7.84-.42-15.71-2.07-23.55-.69-13.59,2.39-23.49,11.92-35.55,17.69-6.18,2.95-12.56,3.27-19.33,2.84-6.48-.42-12.95-1.65-19.12-3.71-1.79-.6-4.51-2.31-5.66.07-.96,1.99.05,5.59.4,7.71,1.23,7.52,3.3,14.88,6.09,21.97,4.08,10.37,10.33,19.82,18.73,27.23,2,1.76,4.16,3.36,6.63,4.38,1.32.54.48-3.37.38-3.82-.27-1.27-.95-5.26-2.45-5.87-8.02-3.28-14.16-11.85-18.8-18.86-.07-.1-.21-.33.08.15.49.8-.33-.63-.33-.64-.46-.87-.92-1.74-1.36-2.63-.94-1.91-1.79-3.87-2.55-5.86-.98-2.58-1.79-5.24-2.42-7.92-.54-2.34-.88-4.24-1.17-6.6-.03-.21-.07-.43-.08-.63-.02-1.19.01.51.18.5.73-.04.92-.58,1.83-.39.86.18,1.73.64,2.56.91,5.23,1.75,10.66,2.96,16.14,3.58,6.3.71,13.24,1.13,19.33-.99,11.19-3.89,20.01-12.67,31.1-16.93,6.7-2.57,13.45-3.17,20.56-2.53,6.64.59,13.52,1.69,20.17.71,5.67-.84,10.24-3.83,12.54-9.19,1.09-2.55,2.05-6.14,4.45-7.84.56-.4,1.07-.33,1.63-.57.1-.04.27.08.25.09-.97.49-1.1-8.14-1.88-4.56-4.12,18.81-14.9,36.68-27.18,51.28-7.93,9.42-17.25,17.86-28,23.95-5.2,2.94-10.74,5.31-16.51,6.89-6.15,1.68-13.01,2.91-19.34,1.71-3.86-.73-7.53-2.21-11.19-3.62-1.33-.51-.48,3.34-.38,3.82.26,1.24.96,5.29,2.45,5.87"/>
    <path class="cls-3" d="M788.26,187.27c-.78-7.5,9.62-6.97,11.25-7.98,4.63-2.88-10.14-5.06-16.01-2.49-6.05,2.65-10.5,9.89-6.86,13.95,3.64,4.06,12.29,2.89,11.62-3.48"/>
    <path class="cls-3" d="M817.69,140.45c-1.71-5.01-6.23-2.94-7.45-2.97-3.47-.08,4.31-6.96,8.39-7.53,4.21-.59,7.7,2.24,7.92,6.21.38,6.65-7.42,8.55-8.87,4.29"/>
    <path class="cls-3" d="M818.38,155.01c-.43,1.19-2.61,1.37-3.8,1.49-3.03.31-6.14.04-9.16-.27-10.16-1.04-20.23-3.24-30.15-5.62-24.54-5.9-49.21-13.38-72.24-23.79-5.66-2.56-11.87-5.46-16.29-9.53-.1-.09-.15-.25-.25-.34,1.73,1.55,3.31,6.67,1.84,7.47.07-.04.26-.44.24-.43.72-.35,1.3-.67,2.11-.85,2.59-.55,5.39-.35,8.01-.17,9.6.69,19.15,2.71,28.51,4.86,13.28,3.04,26.42,6.74,39.39,10.91,12.45,4,24.84,8.37,36.78,13.75,4.01,1.81,8.01,3.71,11.77,6.01,1.28.79,2.56,1.61,3.71,2.59.38.32.75.69.96.9.11.1.17.25.28.35.2.3.16.22-.12-.21-1.68-2.36-2.21-4.72-1.6-7.08-.49,2.01.27,4.39.93,6.29.13.36,2.02,4.22,2.29,3.08.86-3.54-.87-8.68-3.2-11.44-1.84-2.18-4.48-3.71-6.92-5.1-9.24-5.27-19.37-9.13-29.34-12.78-14.02-5.13-28.31-9.57-42.73-13.41-11.91-3.18-23.99-6.06-36.2-7.78-3.86-.54-7.78-1.01-11.68-.95-1.75.03-4.41-.04-5.8,1.27-.78.73-.83,1.69-.78,2.72.12,2.68.98,5.64,2.29,7.99,1.28,2.3,3.49,3.89,5.67,5.27,8.28,5.27,17.74,8.9,26.87,12.39,13.74,5.25,27.77,9.72,41.94,13.68,13.72,3.84,27.67,7.33,41.8,9.3,4.15.58,8.42,1.12,12.62.92,1.65-.08,4.77-.14,5.47-2.08.66-1.84-.32-4.54-.93-6.29-.13-.37-1.87-4.26-2.29-3.08"/>
    <path class="cls-3" d="M685.18,114.9c-6.77,12.25-11.93,25.6-16.22,38.88-8.52,26.33-13.23,54.82-8.54,82.36,2.65,15.53,7.94,30.72,16.76,43.86,4.48,6.67,9.88,12.73,15.91,18.03,1.82,1.6,3.78,3.06,5.44,4.83.65.7,1.15,1.73,1.85,2.35,1.39,1.23-1.23-2.11-.53-2.08.05,0-.05,1.56-.04,1.41-.16,2.16-.67,4.3-1.26,6.38-4.64,16.56-9.59,33.04-14.39,49.56-5.07,17.47-10.25,34.9-15.21,52.4-.09.32-.19.65-.28.97-.44,1.52.12,3.52.52,4.99.28,1,.96,4.19,2.12,4.54,1.25.38,2.5.76,3.75,1.14.26.18.45.13.58-.16,4.97-17.53,9.94-35.06,14.91-52.59,5.27-18.6,10.15-37.37,15.83-55.85.96-3.13,2.82-5.73,5.78-7.27,3.76-1.95,8.8-1.58,12.93-2.24,7.72-1.23,15.3-3.33,22.5-6.39,12.78-5.42,24.02-13.79,33.34-24.03,17.23-18.92,27.56-43.34,33.81-67.9,3.61-14.18,6.32-28.95,6.95-43.61,0-.23.02-.46.03-.7.08-2.32-.58-4.75-1.49-6.87-.24-.56-1.91-3.53-1.98-1.36-.41,12.39-2.53,24.91-5.25,36.97-5.54,24.53-14.89,48.99-30.76,68.77-8.73,10.88-19.54,20.06-32.03,26.34-6.8,3.42-14.02,5.97-21.44,7.64-3.93.89-7.91,1.53-11.91,1.96-2.3.25-4.62.27-6.78,1.2-2.36,1.02-4.39,2.91-5.69,5.12-1.14,1.95-1.62,4.31-2.23,6.46-1.06,3.74-2.12,7.48-3.18,11.23-3.42,12.07-6.84,24.14-10.27,36.21-3.53,12.46-7.07,24.93-10.6,37.39-1.87,6.59-4.12,13.19-5.64,19.88-.12.51.5.07.23,0-1.17-.33-2.32-.7-3.48-1.06.88,3.18,1.76,6.35,2.64,9.53,4.33-14.93,8.67-29.86,13-44.78,5.44-18.74,10.88-37.48,16.32-56.22.8-2.75,1.57-5.51,1.94-8.36.64-4.95-.42-10.12-2.48-14.64-1.9-4.17-5.15-7.03-8.57-9.96-11.58-9.9-20.7-22.64-25.54-37.14-1.91-5.71-3.21-12.22-3.88-18.88-.7-7.01-.74-14.08-.3-21.11.86-13.64,3.44-27.13,7.16-40.27,3.02-10.68,6.78-21.16,11.15-31.37,2.26-5.27,4.88-10.33,7.32-15.5.12-.25.26-.49.39-.73.86-1.56-.4-4.77-.93-6.29-.15-.44-1.65-4.24-2.29-3.08"/>
    <path class="cls-3" d="M1003.77,327.41c-3.12-7.72-13.83.65-29.45,15.56-9.48,9.05-18.93,15.38-33.87,13.68-6.46-.74-11.73,6.71-18.67,7.34-2.19.2-3.33,2.69-2.06,4.53,4.93,7.16,14.2,19.24,24.1,25.15l10.47,6.9c.09.06.19.12.29.17,10.09,5.39,22.83,2.86,30.25-6.01.07-.09.14-.18.21-.27l6.36-9.3s.06-.09.09-.13c26.02-33.02,12.27-57.62,12.27-57.62"/>
    <path class="cls-3" d="M922.3,309.14c.05.38-.15.34.2.1.2-.14-.26.14.24-.19.25-.17.5-.32.76-.47,1.33-.76,2.77-1.32,4.21-1.85,4.89-1.79,9.95-3.15,15.01-4.38,11.69-2.85,23.71-5.11,35.76-5.5,1.81-.06,3.62-.05,5.42.09.35.03.7.06,1.05.1-.7-.08-.11,0,.22.05.59.1.59.2.02-.03.75.3-.33-.24-.04-.05-.35-.23-.67-.31-.86-.87.06.17-.05-.38.05-.29-.08-.08.14-.08-.15.15-.16.13.25-.14-.21.14-1.23.74-2.13,1.07-3.5,1.54-4.63,1.61-9.43,2.75-14.2,3.86-6.4,1.48-12.85,2.84-19.32,3.99-6.35,1.13-12.76,2.09-19.2,2.55-2.15.15-3.69.25-5.79.13-.37-.02-.73-.05-1.1-.09.89.09.03.12-.18-.06-.32-.28.21.04.39.1-.52-.19.64.33.32.14.14.08.86.73.89.83-.71-2.32-7.72-2.91-6.93-.34.99,3.24,6.96,3.25,9.59,3.25,5.8,0,11.6-.7,17.32-1.53,7.57-1.1,15.09-2.59,22.57-4.2,6.19-1.33,12.4-2.71,18.44-4.62,1.88-.59,3.79-1.23,5.55-2.13.92-.47,2.28-1.2,2.46-2.34.25-1.63-1.86-2.65-3.08-3.1-1.71-.63-3.55-.85-5.35-.99-5.27-.42-10.67.02-15.91.56-7.49.78-14.92,2.1-22.28,3.69-7.09,1.54-14.21,3.26-21.04,5.71-2.1.76-8.7,2.48-8.27,5.69.31,2.31,7.31,3.18,6.93.34"/>
    <path class="cls-3" d="M989.11,300.13c.49.37-.59-.49-.04-.04.38.32.77.64,1.15.96,1.37,1.18,2.68,2.43,3.95,3.73.85.87,1.69,1.77,2.5,2.68.2.22.39.44.59.67-.5-.58.3.35.4.47.46.55.92,1.12,1.37,1.68.96,1.22,1.89,2.47,2.78,3.74.47.68.93,1.36,1.38,2.06.34.53.05.09-.01-.02.1.16.2.32.3.48.28.45.55.9.82,1.36.91,1.55,1.75,3.13,2.54,4.74.27.55-.36-.79.06.12.09.19.17.38.26.56.17.38.34.76.5,1.15.42.98.81,1.97,1.18,2.96.15.4.29.81.43,1.22-.23-.68.19.61.26.82.31,1.01.6,2.03.85,3.06.24.95.42,1.78.52,2.32.21,1.09.38,2.18.52,3.28,1.2,9.42-.47,19.06-4.01,27.92-2.32,5.82-5.48,11.29-9.07,16.42-2.03,2.91-4.43,5.57-6.12,8.7-2.39,4.44-3.76,9.39-3.49,14.46.17,3.25,1.08,6.3,2.02,9.39,2.98,9.82,6.24,19.68,10.56,29.01.62,1.33,1.25,2.66,1.92,3.97.28.54.56,1.08.86,1.62.13.23.24.46.38.68,1,1.62.36-2.07-.43-2.12-.56-.04-1.39.28-1.94.38-3.62.64-7.23,1.27-10.85,1.91-12.06,2.12-24.13,4.21-36.19,6.29-.76.13-1.4.33-2.02.1l.98.59s0,.02-.01.02c.39.83.78,1.66,1.18,2.49.41,1.4.08,1.27.24.33.07-.39.13-.78.19-1.17.13-.89.25-1.79.36-2.69.23-1.92.38-3.85.5-5.78.23-3.77.31-7.55.31-11.33,0-5.93-.19-11.86-.53-17.78-.38-6.65-2.46-12.83-6.74-18.04-4.19-5.1-9.74-7.93-14.94-11.83-6.47-4.85-12.33-10.64-16.8-17.41-3.58-5.44-5.77-10.73-7.06-16.99-1.01-4.87-1.23-10.54-.73-15.9.44-4.71,1.46-9.36,2.88-13.87,1.7-5.41,3.67-10.39,6.77-15.15,1.22-1.87-2.18-7.85-3.35-6.06-3.86,5.92-6.48,12.95-8.24,19.74-3.91,15.11-2.64,30.97,4.22,45.05,4.47,9.16,11.21,17.13,19.02,23.63,3.9,3.25,8.09,5.96,12.28,8.8,2.68,1.82,5.39,4.56,7.06,7.63,1.07,1.96,1.5,4.02,1.65,6.24.01.17.02.34.03.52,0,.15.02.3.03.45,0,.14.05.93.03.49-.03-.46.03.49.03.6.02.3.03.59.05.89.04.8.08,1.6.11,2.4.08,2.02.15,4.03.2,6.05.22,9.22.04,18.39-1.31,27.52-.38,2.57,1.12,7.5,4.38,7.37.51-.02,1.04-.16,1.54-.25,2.84-.49,5.68-.98,8.52-1.47,5.14-.89,10.28-1.76,15.41-2.66,5.19-.9,10.38-1.83,15.57-2.74,2.83-.5,5.67-1,8.5-1.5.5-.09,1.08-.12,1.54-.35,2.83-1.48.38-5.96-.64-7.79-4.23-7.62-7.34-16.71-10-24.88-1.71-5.25-4.29-11.16-3.44-16.78,1.13-7.44,5.96-12.34,9.98-18.33,5.53-8.25,9.9-17.47,11.81-27.26,2.94-15.05-.18-30.49-7.71-43.75-4.42-7.79-10.22-15.08-17.1-20.85-.5-.42-1-.83-1.52-1.22-1.32-1-1.61,1.19-1.51,1.99.21,1.64,1.02,3.31,2.35,4.31"/>
    <path class="cls-1" d="M999.17,335.48c.23.32.05-.24.04.41-.01.44-.05.86-.14,1.29-.21,1.08-.62,2.14-1.11,3.13-.52,1.03-1.13,2.05-1.85,2.96-1.22,1.54,1.74,7.06,3.01,5.45,4-5.06,4.87-11.69,1.1-17.14-.61-.88-1.65-1.53-2.22-.34-.57,1.21.52,3.31,1.17,4.26"/>
    <path class="cls-3" d="M391.31,58.89c-1.37.34-3.31-.54-6.3.2-11.54,2.86-32.72,18.36-33.91,24.55l.02.09c.68,1.64,27.65.68,31.02,1.83,1.39.47,5.91,3.34,6.61,6.16.19.77.17,1.41-.3,2.07-1.54,2.19-13.95,12.89-17.45,13.76-2.73.68-7.86.13-8.37-1.19-.44-1.79,18.75-11.45,17.83-15.12-.02-.08-.11-.06-.13-.15-1.72-3.29-24.54,1.64-32.23-3.44-.98-.66-2.28-2.97-2.85-5.28-.4-1.62-.38-3.35.26-4.42,2.74-4.67,20.62-20.35,36-24.16,5.38-1.34,9.44.02,12.8,2.63.19.77-1.48,2.09-3.02,2.47"/>
    <path class="cls-3" d="M416.93,60.86c-7,.72-12.43,11.71-11.74,18.46.4,3.94,2.75,5.21,5.02,4.97,3.68-.38,8.22-4.38,9.49-7.52,1.42-3.42,2.14-9.33,1.79-12.75-.03-.35-.07-.7-.11-1.05-.51-2.34-3.06-2.25-4.47-2.11M414.93,91.41c-9.2.94-14.59-7.62-15.36-15.15-1.49-14.54,8.4-21.66,13.39-22.17,1.66-.17,3.44-.09,5.02,1.52,3.15-.32,8.62.36,10.92,14.19.94,9.2-5.92,20.78-13.98,21.61"/>
    <path class="cls-3" d="M477.12,82.34c-.22,5.98-17.19,15.06-21.86,14.89-5.89-.21-13.15-4.26-12.77-14.91.61-16.81,17.94-38.12,30.16-39.79.27-.08.53-.07.79-.06,2.29.08,4.34,1.92,4.29,3.06-.01.35-.29.7-.82.85-4.63,1.24-26.49,21.07-27.12,38.49-.09,2.64-.32,6.42,2.94,6.54,5.37.19,17.6-6.77,20.68-11.5.37-.43.82-.67,1.43-.65.97.04,2.17.87,2.28,2.72,0,.09,0,.27-.01.35"/>
    <path class="cls-3" d="M499.31,74.89c-1.85,11.74-4.1,20.39-6.02,20.09-1.56-.25-2.54-3.7-2.91-5.27-.81-3.34.4-15.54,1.66-23.54,1.11-7.05,1.09-8.03,3.87-7.59,3.48.55,4.43,1.86,4.5,6.5-.14,2.56-.51,6.07-1.1,9.81"/>
    <path class="cls-3" d="M541.32,62.23c-1.15-.17-12.09,12.35-19.76,22.96,14.45-1.65,21.93.7,21.93.7,0,0-1.5-23.45-2.17-23.66M550.06,109.92c-.4,1.26-1.73,1.39-2.99,1-6.47-2.03-3.75-5.98-3.82-18.09-9.41.28-25.19-2.65-25.19-2.65-3.42,3.54-13.34,17.5-14.28,17.85-.41.42-2.77.61-4.12.18-.5-.16-.87-.46-.82-.9,2.85-9.07,37.11-49.99,39.35-50.67,2.24-.68,4.7-.55,6.54.03,1.59.5,2.81,1.34,3.16,2.28,3.08,7.52,3.82,41.89,2.38,50.02-.11.34-.13.7-.21.95"/>
    <path class="cls-3" d="M582.26,133.88c-2.79,1.31-20.77.66-23.34-.7-1.32-.7-2.74-2.54-4.16-5.69-.61-.92,11.28-26.2,20.39-43.4,5.11-9.65,8.3-16.43,11.02-14.98,1.09.58,2.2,2.06,2.31,3.91-.23,1.37-1.76,4.65-4.27,9.39-2.93,5.52-6.95,12.76-10.7,19.83-5.23,9.88-9.95,19.54-11.01,24.56,6.5,1.45,18.87,3.31,18.55,3.15,1.32.7,2.19,2.26,1.85,3.27-.12.23-.37.5-.64.65"/>
    <path class="cls-3" d="M458.63,135.96c-1.41.01-3.09-1.3-6.17-1.28-11.88.08-36.11,10.2-38.71,15.94v.09c.28,1.76,26.73,7.12,29.73,9.04,1.24.79,4.96,4.63,4.98,7.54,0,.79-.17,1.41-.78,1.94-2.01,1.78-16.57,9.27-20.18,9.3-2.82.02-7.67-1.71-7.86-3.11-.01-1.85,20.91-6.75,20.88-10.53,0-.09-.09-.09-.09-.18-.9-3.6-24.24-4.15-30.54-10.88-.8-.88-1.52-3.42-1.54-5.8-.01-1.67.42-3.35,1.29-4.23,3.76-3.9,24.81-14.96,40.66-15.07,5.55-.04,9.17,2.22,11.84,5.55,0,.79-1.93,1.69-3.51,1.7"/>
    <path class="cls-3" d="M474.66,154.9c-1.27,11.82-3.09,20.57-5.01,20.36-1.57-.17-2.72-3.57-3.17-5.12-.98-3.29-.37-15.54.49-23.59.76-7.09.69-8.07,3.49-7.77,3.5.37,4.52,1.63,4.82,6.27-.01,2.57-.21,6.09-.61,9.85"/>
    <path class="cls-3" d="M529.76,149.53c-3.35-3.49-8.28-7.53-19.86-10.21-2.23-.52-4.65-.99-7.37-1.35,0,0-4.16,16.75-6.2,24.77,5.23.04,32.84-6.75,34.03-11.9.01-.45-.16-.85-.6-1.31M536.68,154.76c-.06.26-.21.49-.37.82-4.7,7.41-27.93,12.86-41.13,12.87-.06.26-.14.6-.22.94-.58,2.49-1.59,7.22-2.34,10.48-.5,2.14-.66,3.64-1.35,3.48-1.29-.3-4.57-3.68-4.6-5.86-.11-3.82,1.88-15.11,4.29-25.49,2.45-10.55,5.3-20.1,6.56-20.08,4.76.11,8.96.72,12.56,1.56,11.32,2.63,17,7.74,20.15,10.55,3.73,3.4,6.83,7.55,6.54,10.38-.02.09-.06.26-.08.34"/>
  </g>
</svg>