<?xml version="1.0" encoding="UTF-8"?>
<svg id="alternatieve_logo_s" data-name="alternatieve logo&amp;apos;s" xmlns="http://www.w3.org/2000/svg" xmlns:xlink="http://www.w3.org/1999/xlink" viewBox="0 0 1259.89 1190.68">
  <defs>
    <style>
      .cls-1 {
        fill: #2d2e83;
      }

      .cls-1, .cls-2, .cls-3 {
        stroke-width: 0px;
      }

      .cls-2 {
        fill: none;
      }

      .cls-4 {
        clip-path: url(#clippath);
      }

      .cls-3 {
        fill: #fff;
      }
    </style>
    <clipPath id="clippath">
      <rect class="cls-2" x="105.97" y="399.81" width="1027.64" height="470.85"/>
    </clipPath>
  </defs>
  <g class="cls-4">
    <path class="cls-3" d="M208.23,656.32c3.06,6.28,6.12,12.56,9.18,18.84,7.31,15,14.62,29.99,21.93,44.99,8.89,18.23,17.77,36.46,26.65,54.69,7.68,15.77,15.37,31.53,23.05,47.3,3.71,7.62,7.09,15.55,11.2,22.97.06.1.1.21.16.32,1.03,2.12,1.63-1.26,1.74-2.08.3-2.27.6-5.76-.46-7.92-3.06-6.28-6.12-12.56-9.18-18.84-7.31-14.99-14.62-29.99-21.93-44.99-8.89-18.23-17.77-36.46-26.65-54.69-7.68-15.77-15.37-31.53-23.05-47.3-3.71-7.62-7.09-15.55-11.2-22.97-.06-.1-.1-.21-.16-.32-1.03-2.12-1.63,1.26-1.74,2.08-.3,2.27-.6,5.76.46,7.92"/>
    <path class="cls-3" d="M350.59,606.02c6.73,20.34,13.45,40.68,20.18,61.02,10.65,32.2,21.3,64.41,31.95,96.61,2.46,7.43,4.91,14.86,7.37,22.28.78,2.36,1.67-1.51,1.74-2.08.34-2.54.36-5.46-.46-7.92-6.73-20.34-13.45-40.68-20.18-61.02-10.65-32.2-21.3-64.41-31.95-96.61-2.46-7.43-4.91-14.86-7.37-22.29-.78-2.36-1.67,1.51-1.74,2.08-.34,2.54-.36,5.46.46,7.92"/>
    <path class="cls-3" d="M241.6,653.06c8.13,18.2,16.26,36.39,24.39,54.59,12.97,29.02,25.93,58.04,38.9,87.06,2.98,6.68,5.97,13.36,8.95,20.04,1.19,2.66,4.23,3.36,6.87,2.52,2.14-.68,5.37-3.34,4.18-6.01-8.13-18.2-16.26-36.4-24.39-54.59-12.97-29.02-25.93-58.04-38.9-87.06-2.98-6.68-5.97-13.36-8.96-20.04-1.19-2.66-4.22-3.36-6.87-2.52-2.14.68-5.37,3.34-4.18,6.01"/>
    <path class="cls-3" d="M313.58,615.4c6.96,18.72,13.92,37.44,20.88,56.16,11.05,29.71,22.1,59.43,33.14,89.14,2.53,6.81,5.07,13.63,7.6,20.44,1.25,3.35,12.31,1.56,11.58-.41-6.96-18.72-13.92-37.44-20.88-56.16-11.05-29.71-22.09-59.43-33.14-89.14-2.53-6.81-5.07-13.63-7.6-20.44-1.25-3.35-12.31-1.56-11.58.41"/>
    <path class="cls-3" d="M278.32,634.87c7.55,19.92,15.11,39.83,22.66,59.75,12.02,31.7,24.04,63.4,36.06,95.11,2.74,7.22,5.47,14.44,8.21,21.66.94,2.49,3.62,4.38,6.08,5.17,1.45.47,4.71.6,3.76-1.92-7.55-19.92-15.11-39.83-22.66-59.75-12.02-31.7-24.04-63.4-36.06-95.1-2.74-7.22-5.47-14.44-8.21-21.66-.94-2.48-3.62-4.38-6.08-5.17-1.45-.47-4.71-.6-3.76,1.92"/>
    <path class="cls-3" d="M107.52,546.58c5.8,10.67,11.59,21.34,17.38,32.01,13.91,25.61,27.82,51.23,41.73,76.84,16.72,30.79,33.44,61.59,50.17,92.38,14.53,26.75,29.05,53.5,43.58,80.26,4.76,8.76,9.52,17.53,14.28,26.29,2.21,4.08,4.13,8.7,6.8,12.51.12.17.2.38.3.56.55,1.02,3.79,1.4,4.62,1.56,1.87.35,3.87.67,5.78.43,11.19-1.41,22.3-4.14,33.18-7.04,26.23-6.99,51.76-16.82,75.8-29.45,17.22-9.05,33.63-19.6,48.89-31.67.08-.09.17-.17.25-.25-3.45-11.34-6.9-22.69-10.36-34.03-8.29-27.24-16.58-54.49-24.87-81.73-10.03-32.95-20.06-65.91-30.09-98.86-8.67-28.48-17.34-56.96-26.01-85.44-2.84-9.34-5.68-18.68-8.53-28.02-1.34-4.4-2.32-9.18-4.09-13.44-.07-.18-.11-.38-.17-.57-.57-1.86-9.82-3.4-11.18-2.14-11.21,10.35-24.24,19.06-37.11,27.15-32.35,20.33-67.69,35.96-104.37,46.61-27.79,8.07-56.41,13.13-85.26,15.32-2.45.19,1.39,1.7,1.81,1.81,2.53.72,5.25,1.1,7.88.9,47.87-3.63,95.06-15.35,138.98-34.75,27.13-11.98,53.29-26.77,76.91-44.77,4.13-3.15,8.27-6.36,12.09-9.89-3.73-.71-7.45-1.43-11.18-2.14,1.51,4.95,3.01,9.9,4.52,14.85,3.95,12.97,7.89,25.94,11.84,38.91,5.6,18.4,11.2,36.79,16.8,55.19,6.38,20.98,12.77,41.95,19.15,62.92,6.4,21.03,12.8,42.05,19.2,63.08,5.54,18.21,11.08,36.41,16.62,54.62,3.91,12.84,7.81,25.67,11.72,38.51,1.07,3.51,2.14,7.03,3.21,10.54.26.86.69,1.79.81,2.68.25,1.74-1.14,1.84-2.78,3.1-28.16,21.71-60.19,38.21-93.68,49.99-18.45,6.49-37.52,11.83-56.87,14.88-.93.15-1.87.29-2.81.41,3.47.66,6.93,1.32,10.4,1.98-5.79-10.67-11.59-21.34-17.38-32.01-13.91-25.61-27.82-51.23-41.73-76.84-16.72-30.79-33.44-61.59-50.17-92.38-14.53-26.75-29.05-53.5-43.58-80.26-4.76-8.76-9.52-17.53-14.28-26.29-2.21-4.08-4.13-8.7-6.79-12.51-.12-.17-.2-.38-.3-.56-.82-1.51-5.41-1.75-6.9-1.91-.62-.07-4.85-.52-4.21.67"/>
    <path class="cls-3" d="M159.76,631.66c17.56-1.03,35.14-3.98,52.35-7.48,36.43-7.4,72.52-18.73,105.1-36.89,19.7-10.98,38.03-24.56,52.96-41.56-2.59-1.04-5.18-2.09-7.77-3.13,4.29,14.09,8.58,28.18,12.86,42.27,9.28,30.5,18.56,60.99,27.84,91.49,8.99,29.52,17.97,59.04,26.96,88.56,2.72,8.95,5.45,17.9,8.17,26.84.63,2.06,1.08,4.32,1.92,6.31.03.08.22.95.29.96.6.07.61-.96.37-1.04-.06-.02-.3.24-.36.27-.63.26-1.27.95-1.82,1.35-16.73,12.24-34.6,23.07-52.99,32.61-12.82,6.64-25.97,12.75-39.62,17.49-12.88,4.47-26.12,7.79-39.4,10.85-7.44,1.71-14.91,3.36-22.36,5.03,2.32.94,4.64,1.87,6.96,2.8-4.32-7.96-8.65-15.93-12.97-23.89-10.29-18.95-20.58-37.9-30.87-56.85-12.53-23.08-25.07-46.16-37.6-69.25-10.8-19.88-21.59-39.76-32.39-59.64-5.24-9.65-10.23-19.5-15.75-29-.08-.13-.15-.27-.22-.41-.95-1.76-3.27-2.85-5.21-2.98-1.3-.09-3.59.49-2.61,2.3,4.32,7.96,8.65,15.93,12.97,23.89,10.29,18.95,20.58,37.9,30.87,56.85,12.54,23.08,25.07,46.16,37.6,69.25,10.8,19.88,21.59,39.76,32.39,59.64,5.24,9.65,10.23,19.5,15.75,29,.08.13.15.27.22.41,1.26,2.32,4.51,3.35,6.96,2.8,26.69-5.98,53.56-11.54,78.74-22.54,23.34-10.2,45.72-22.81,66.82-37.08,4.16-2.81,8.3-5.66,12.29-8.71.34-.3.49-.67.45-1.12-2.6-8.54-5.2-17.08-7.8-25.62-6.21-20.41-12.42-40.81-18.63-61.21-7.51-24.67-15.02-49.34-22.52-74.01-6.49-21.33-12.98-42.66-19.48-63.99-3.16-10.39-6.32-20.78-9.49-31.17-.05-.15-.09-.3-.14-.45-.66-2.16-5.76-5.42-7.77-3.13-26.26,29.91-62.53,49.14-99.63,62.2-29.1,10.24-59.45,17.05-90.05,20.9-5.94.75-11.92,1.45-17.9,1.8-1.85.11-2.22,1.66-1.2,2.98,1.23,1.6,3.75,2.41,5.7,2.3"/>
    <path class="cls-3" d="M334.63,455.61c.38,1.02-.21-1.3-.13-.52.07.58.11-1.55,0-.44-.09.88-.21.31.13-.28-.19.34-.31.75-.48,1.1-.15.33-.37.62-.54.94.55-.96.35-.49-.11.08-.67.83-1.36,1.63-2.11,2.4-.78.8-1.6,1.57-2.43,2.32-.46.41-.93.82-1.4,1.22.79-.67-.87.69-1.06.85-2.5,1.97-5.09,3.82-7.73,5.59-15.53,10.48-32.4,19.05-49.3,27.07-21.93,10.4-44.42,19.66-67.26,27.86-19.21,6.89-38.77,13.22-58.75,17.52-6.76,1.46-12.79,2.59-19.22,2.95-1.18.06-2.37.1-3.55.08-.53,0-1.06-.02-1.59-.05-.44-.03-2.4-.28-.72-.02-.8-.13-1.58-.35-2.37-.49-1.33-.23.92.4.18.09-.63-.26-1.47-1.1.13.22-.9-.75.58,1.06.56,1.02-.4-.99.2,1.13.13.52-.08-.67-.15,1.61.02.34.15-1.09-.13.31-.11.28.17-.26.23-.61.38-.88.18-.31.36-.62.53-.93-.42.78-.35.45.29-.32,1.36-1.65,2.84-3.16,4.43-4.59.46-.41.93-.82,1.4-1.22-.75.63.6-.48.86-.69,1.29-1.02,2.61-2.01,3.94-2.97,14.23-10.28,30.04-18.49,45.76-26.21,21.52-10.57,43.64-19.94,66.11-28.32,20.02-7.47,40.39-14.29,61.19-19.27,6.96-1.67,15.09-3.37,21.42-4.04,2.59-.27,5.19-.46,7.79-.41.52,0,1.05.03,1.57.06.37.02,2.24.28.54,0,.84.13,1.67.41,2.5.53,1.19.18-1.22-.52-.2-.08.32.14,1.14.8.23.05-.81-.66.06.64-.41-.37-.11-.23-.49-.68-.62-.97,1.19,2.7,4.12,4.71,7.15,3.89,2.78-.75,4.32-4,3.15-6.66-4.73-10.76-21.75-7.34-30.63-5.93-19.94,3.18-39.49,9.32-58.56,15.81-24.75,8.43-49.08,18.21-72.83,29.12-18.77,8.63-37.5,17.89-54.79,29.25-5.53,3.63-11.04,7.53-15.8,12.16-2.91,2.83-5.94,6.39-6.3,10.6-1.08,12.84,17.13,11.73,25.14,10.76,19.06-2.32,37.75-7.87,55.96-13.78,24.93-8.09,49.4-17.68,73.35-28.33,19.72-8.77,39.3-18.24,57.68-29.6,6.35-3.92,12.54-8.11,18.22-12.95,3.27-2.78,6.87-6.1,8.42-10.22.84-2.25.98-4.62.14-6.9-2.39-6.44-12.92-4.28-10.3,2.76"/>
    <path class="cls-3" d="M772.46,714.94c-10.97-3.32-21.98-6.53-33.06-9.5-3.77-1.01-7.54-2-11.34-2.89-1.82-.43-4.38-1.45-6.29-1.23-2.84.32-.12,6.81.48,8.22.97,2.26,2.1,2.76,4.23,3.63,7.16,2.91,14.59,5.2,21.94,7.56,21.38,6.87,42.94,13.39,64.72,18.87,2.8.7,5.61,1.4,8.44,1.98.72.15,2.74.89,3.47.45.83-.5.44-2.22.34-2.95-.31-2.22-.94-5.32-2.44-7.07-.61-.71-1.35-1.04-2.2-1.41-4.92-2.17-10.16-3.71-15.26-5.37-10.97-3.57-22.01-6.94-33.05-10.28-1.42-.43-.52,3.42-.4,4,.25,1.18,1.05,5.68,2.56,6.14,12.77,3.86,25.54,7.73,38.19,11.98,2.99,1.01,5.99,2.01,8.92,3.18.75.3,1.48.63,2.21.97.18.08.36.25.55.31.06.02.11.11.17.13-.06-.06-.11-.12-.17-.19-1.19-1.22-1.63-2.85-1.32-4.88-1.89-2.01-2.24-3.61-1.04-4.8.12-.11.15-.14.09-.1-1.79-.52-4.1-.56-6-.99-5.29-1.21-10.53-2.59-15.76-4.01-16.32-4.4-32.53-9.24-48.64-14.33-7.06-2.23-14.12-4.5-21.1-6.96-2.14-.75-4.27-1.51-6.37-2.36-.62-.25-1.25-.49-1.84-.79-1.46-.74-.9-1.08.27,1.5.52,2.4,1.04,4.79,1.55,7.19-.02,2.21-.61.31.04.73.15.1.69.06.87.08,1.03.11,2.06.36,3.08.57,3.62.78,7.22,1.71,10.8,2.65,11.91,3.12,23.73,6.58,35.52,10.14,1.42.43.52-3.42.4-4-.25-1.18-1.05-5.68-2.56-6.14"/>
    <path class="cls-3" d="M802.14,578.88c6.02,2.32,11.95,4.69,18.26,4.37,51.41-2.63,85.4-65.73,89.43-89.05,1.03-5.95-3.53-8.03-7.85,3.53-5.16,13.8-20.42,10.42-36.96,9.11-25.92-2.04-40.48,20.73-57.63,21.94-15.45,1.09-28.19-2.98-33.52-5.05-1.28-.5-2.61.54-2.47,1.94.58,5.75,2.7,18.82,10.43,32.7.03.05.06.1.09.15.79,1.2,11.28,16.92,20.22,20.37"/>
    <path class="cls-3" d="M803.22,583.95c3.78,1.46,7.57,2.95,11.54,3.81,3.87.84,7.7.73,11.61.26,6.99-.85,13.81-2.85,20.22-5.75,12.49-5.64,23.27-14.47,32.48-24.52,8.87-9.67,16.38-20.61,22.45-32.23,4.35-8.32,8.45-17.35,10.05-26.68.59-3.45-.14-7.06-1.36-10.29-.59-1.55-1.59-4.54-3.74-4.33-2.09.2-3.69,3.23-4.51,4.8-1.75,3.34-2.55,7.04-5.41,9.68-4.92,4.53-12.4,4.51-18.66,4.17-8.21-.44-16.44-2.16-24.64-.72-14.22,2.5-24.58,12.47-37.2,18.51-6.47,3.09-13.15,3.42-20.23,2.97-6.79-.44-13.55-1.72-20-3.88-1.87-.63-4.72-2.42-5.93.07-1.01,2.08.06,5.84.42,8.07,1.29,7.87,3.45,15.57,6.37,22.99,4.27,10.85,10.81,20.74,19.6,28.5,2.09,1.84,4.35,3.52,6.94,4.58,1.38.57.5-3.52.4-4-.28-1.33-.99-5.5-2.56-6.14-8.39-3.44-14.81-12.4-19.67-19.74-.07-.11-.22-.34.09.15.52.84-.35-.65-.35-.67-.48-.91-.97-1.83-1.42-2.75-.98-2-1.88-4.05-2.66-6.13-1.02-2.7-1.88-5.48-2.53-8.29-.57-2.44-.92-4.44-1.22-6.91-.03-.22-.08-.45-.08-.66-.02-1.24.01.53.18.52.77-.04.97-.6,1.91-.41.9.19,1.81.67,2.68.96,5.48,1.83,11.15,3.1,16.89,3.74,6.6.75,13.86,1.18,20.22-1.03,11.71-4.07,20.93-13.26,32.54-17.71,7.01-2.69,14.08-3.31,21.52-2.65,6.94.62,14.15,1.77,21.11.74,5.94-.87,10.72-4,13.12-9.62,1.14-2.67,2.14-6.42,4.65-8.2.59-.42,1.12-.35,1.7-.59.1-.04.29.08.26.09-1.02.51-1.15-8.52-1.97-4.77-4.31,19.69-15.59,38.38-28.44,53.66-8.3,9.86-18.05,18.69-29.3,25.06-5.44,3.08-11.24,5.56-17.27,7.21-6.43,1.76-13.61,3.05-20.24,1.79-4.04-.77-7.88-2.32-11.71-3.79-1.39-.54-.5,3.5-.4,4,.27,1.3,1.01,5.54,2.56,6.14"/>
    <path class="cls-3" d="M895.62,477.62c-.82-7.84,10.07-7.3,11.77-8.35,4.85-3.01-10.61-5.29-16.75-2.6-6.33,2.77-10.99,10.35-7.18,14.6,3.81,4.25,12.86,3.03,12.16-3.64"/>
    <path class="cls-3" d="M926.42,428.62c-1.79-5.24-6.52-3.08-7.79-3.11-3.63-.09,4.51-7.28,8.78-7.88,4.4-.62,8.05,2.34,8.29,6.5.4,6.96-7.76,8.94-9.28,4.49"/>
    <path class="cls-3" d="M927.14,443.86c-.45,1.24-2.74,1.43-3.97,1.56-3.17.32-6.42.04-9.58-.28-10.64-1.08-21.17-3.39-31.55-5.88-25.67-6.18-51.49-14-75.59-24.9-5.92-2.68-12.42-5.71-17.04-9.98-.11-.1-.15-.26-.26-.36,1.81,1.62,3.46,6.98,1.92,7.81.07-.04.27-.46.25-.45.75-.37,1.36-.7,2.2-.88,2.71-.58,5.64-.37,8.38-.17,10.05.72,20.03,2.84,29.83,5.08,13.9,3.18,27.65,7.06,41.22,11.41,13.03,4.18,26,8.76,38.48,14.38,4.2,1.89,8.39,3.88,12.32,6.29,1.34.82,2.68,1.69,3.88,2.71.39.33.78.72,1.01.94.11.1.18.26.29.37.21.31.17.23-.13-.22-1.75-2.47-2.31-4.94-1.67-7.41-.51,2.1.28,4.6.97,6.58.13.38,2.11,4.42,2.4,3.22.89-3.7-.91-9.08-3.35-11.97-1.93-2.28-4.68-3.88-7.24-5.34-9.67-5.52-20.27-9.55-30.7-13.38-14.67-5.37-29.62-10.01-44.71-14.03-12.46-3.32-25.1-6.35-37.88-8.14-4.04-.57-8.14-1.06-12.23-.99-1.83.03-4.62-.04-6.07,1.32-.82.77-.87,1.77-.82,2.85.13,2.81,1.03,5.9,2.4,8.36,1.34,2.41,3.65,4.07,5.93,5.52,8.66,5.52,18.56,9.31,28.11,12.96,14.38,5.49,29.06,10.18,43.88,14.31,14.36,4.01,28.96,7.67,43.74,9.74,4.35.61,8.81,1.17,13.21.97,1.72-.08,4.99-.14,5.73-2.18.69-1.93-.34-4.75-.97-6.58-.13-.39-1.96-4.46-2.4-3.22"/>
    <path class="cls-3" d="M787.76,401.89c-7.08,12.81-12.48,26.79-16.98,40.68-8.91,27.55-13.85,57.36-8.93,86.18,2.77,16.26,8.31,32.14,17.53,45.89,4.68,6.98,10.34,13.32,16.65,18.87,1.9,1.67,3.95,3.2,5.69,5.06.68.73,1.21,1.81,1.94,2.46,1.45,1.29-1.29-2.21-.56-2.17.05,0-.06,1.63-.04,1.47-.17,2.26-.7,4.49-1.31,6.68-4.85,17.33-10.04,34.58-15.05,51.86-5.3,18.28-10.72,36.52-15.92,54.83-.1.34-.2.68-.3,1.02-.46,1.59.12,3.68.55,5.22.29,1.05,1,4.39,2.22,4.75,1.31.4,2.62.8,3.93,1.19.27.19.47.13.6-.17,5.2-18.34,10.4-36.69,15.6-55.03,5.52-19.46,10.62-39.1,16.57-58.44,1.01-3.28,2.95-6,6.05-7.61,3.94-2.04,9.21-1.66,13.53-2.34,8.08-1.28,16.01-3.49,23.54-6.68,13.37-5.67,25.13-14.43,34.89-25.14,18.03-19.8,28.84-45.35,35.38-71.05,3.78-14.84,6.61-30.29,7.27-45.63.01-.24.02-.48.03-.73.08-2.43-.61-4.97-1.55-7.19-.25-.58-1.99-3.7-2.07-1.42-.43,12.97-2.64,26.07-5.49,38.69-5.8,25.67-15.58,51.26-32.19,71.96-9.13,11.38-20.45,20.99-33.51,27.57-7.11,3.58-14.67,6.24-22.44,7.99-4.11.93-8.28,1.6-12.46,2.05-2.4.26-4.84.28-7.09,1.25-2.47,1.07-4.6,3.04-5.95,5.36-1.19,2.04-1.69,4.51-2.33,6.76-1.11,3.92-2.22,7.83-3.33,11.75-3.58,12.63-7.16,25.26-10.74,37.89-3.7,13.04-7.4,26.09-11.09,39.13-1.96,6.9-4.31,13.81-5.9,20.8-.12.54.53.07.24,0-1.22-.34-2.42-.74-3.64-1.11.92,3.32,1.84,6.65,2.77,9.97,4.53-15.62,9.07-31.24,13.6-46.86,5.69-19.61,11.38-39.22,17.08-58.82.84-2.88,1.64-5.77,2.03-8.75.67-5.18-.44-10.59-2.59-15.32-1.99-4.36-5.39-7.36-8.97-10.42-12.12-10.36-21.67-23.69-26.73-38.86-2-5.98-3.36-12.79-4.06-19.76-.74-7.34-.78-14.74-.32-22.09.89-14.27,3.6-28.39,7.49-42.14,3.16-11.18,7.09-22.15,11.67-32.82,2.36-5.51,5.11-10.81,7.66-16.22.12-.26.27-.51.41-.77.9-1.63-.42-4.99-.97-6.58-.16-.46-1.73-4.44-2.4-3.22"/>
    <path class="cls-3" d="M1121.13,624.26c-3.26-8.08-14.47.68-30.81,16.28-9.92,9.47-19.81,16.1-35.44,14.32-6.76-.77-12.28,7.02-19.53,7.68-2.29.21-3.48,2.81-2.15,4.74,5.16,7.49,14.86,20.13,25.22,26.32l10.96,7.22c.1.06.2.13.3.18,10.56,5.64,23.88,2.99,31.65-6.29.08-.09.15-.19.21-.28l6.66-9.74s.06-.09.1-.13c27.23-34.55,12.84-60.29,12.84-60.29"/>
    <path class="cls-3" d="M1035.89,605.14c.05.4-.15.36.21.1.21-.15-.27.15.25-.2.26-.17.52-.34.79-.49,1.39-.8,2.9-1.39,4.41-1.94,5.12-1.88,10.42-3.29,15.71-4.58,12.23-2.99,24.81-5.35,37.42-5.75,1.89-.06,3.79-.05,5.67.09.37.03.74.06,1.1.1-.73-.08-.11,0,.23.06.62.11.62.21.02-.03.79.32-.35-.25-.04-.05-.36-.24-.7-.32-.9-.91.06.18-.05-.4.05-.31-.09-.08.14-.08-.16.16-.17.13.27-.14-.21.15-1.28.77-2.23,1.12-3.66,1.61-4.85,1.68-9.87,2.88-14.86,4.03-6.7,1.55-13.45,2.97-20.22,4.18-6.65,1.18-13.35,2.19-20.09,2.67-2.25.16-3.86.26-6.06.14-.38-.02-.77-.05-1.15-.09.94.1.03.13-.18-.06-.33-.29.22.04.4.11-.54-.2.67.34.33.15.15.09.9.76.94.87-.74-2.43-8.07-3.04-7.25-.35,1.04,3.39,7.28,3.4,10.03,3.4,6.07,0,12.13-.73,18.13-1.6,7.93-1.16,15.79-2.71,23.62-4.4,6.47-1.39,12.98-2.83,19.3-4.83,1.97-.62,3.96-1.29,5.81-2.23.96-.49,2.39-1.25,2.57-2.45.27-1.7-1.95-2.77-3.23-3.24-1.79-.66-3.71-.89-5.6-1.04-5.51-.44-11.17.02-16.65.59-7.84.81-15.61,2.19-23.31,3.86-7.42,1.61-14.87,3.41-22.02,5.98-2.19.79-9.1,2.59-8.65,5.95.33,2.42,7.65,3.33,7.25.35"/>
    <path class="cls-3" d="M1105.79,595.71c.51.38-.62-.52-.05-.04.4.34.81.67,1.2,1.01,1.43,1.24,2.81,2.55,4.14,3.9.89.91,1.77,1.85,2.62,2.8.21.23.41.46.61.7-.53-.61.31.37.42.49.49.58.96,1.17,1.43,1.76,1.01,1.28,1.98,2.58,2.91,3.92.49.71.97,1.43,1.44,2.15.36.56.06.09-.01-.02.11.17.21.34.31.51.29.47.58.94.86,1.42.95,1.62,1.83,3.28,2.65,4.96.28.58-.38-.83.06.12.09.2.18.39.27.59.18.4.36.8.53,1.2.44,1.02.85,2.06,1.23,3.1.16.42.31.85.45,1.28-.24-.71.2.64.27.85.33,1.06.62,2.12.89,3.2.25,1,.44,1.86.55,2.43.21,1.14.4,2.28.54,3.43,1.26,9.85-.49,19.95-4.2,29.22-2.43,6.09-5.74,11.82-9.49,17.18-2.13,3.05-4.63,5.82-6.41,9.1-2.51,4.64-3.93,9.83-3.66,15.13.18,3.4,1.13,6.6,2.11,9.83,3.12,10.28,6.53,20.59,11.05,30.35.65,1.39,1.31,2.78,2.01,4.15.29.57.59,1.13.9,1.69.13.24.26.48.4.72,1.05,1.69.37-2.17-.45-2.22-.59-.04-1.45.29-2.03.39-3.78.67-7.57,1.33-11.35,2-12.62,2.22-25.24,4.4-37.87,6.58-.79.14-1.46.35-2.11.11l1.03.62s0,.02-.01.02c.41.87.82,1.73,1.23,2.6.43,1.46.08,1.33.25.35.07-.41.13-.82.2-1.23.14-.94.26-1.88.37-2.82.24-2.01.4-4.03.53-6.05.24-3.95.32-7.9.32-11.86,0-6.21-.2-12.41-.55-18.6-.4-6.96-2.58-13.43-7.05-18.88-4.38-5.34-10.19-8.3-15.64-12.38-6.77-5.08-12.91-11.14-17.58-18.22-3.75-5.69-6.03-11.22-7.39-17.78-1.05-5.1-1.28-11.03-.76-16.63.46-4.93,1.53-9.8,3.01-14.52,1.78-5.66,3.84-10.87,7.08-15.85,1.27-1.95-2.28-8.21-3.5-6.34-4.04,6.19-6.78,13.55-8.62,20.66-4.1,15.81-2.76,32.41,4.42,47.14,4.67,9.59,11.73,17.93,19.91,24.72,4.08,3.4,8.47,6.23,12.85,9.21,2.8,1.9,5.64,4.77,7.38,7.98,1.12,2.05,1.57,4.21,1.73,6.53.01.18.02.36.04.54,0,.16.02.32.03.47,0,.15.06.97.03.52-.03-.48.03.52.03.63.02.31.03.62.05.93.04.84.08,1.68.11,2.52.09,2.11.16,4.22.21,6.33.23,9.65.04,19.24-1.37,28.8-.4,2.69,1.17,7.85,4.58,7.71.54-.02,1.09-.17,1.62-.26,2.97-.51,5.94-1.02,8.91-1.54,5.38-.93,10.76-1.85,16.13-2.78,5.43-.95,10.86-1.91,16.29-2.87,2.96-.52,5.93-1.04,8.9-1.57.52-.09,1.13-.12,1.61-.37,2.97-1.54.4-6.23-.67-8.16-4.42-7.97-7.68-17.48-10.46-26.03-1.79-5.49-4.49-11.68-3.6-17.56,1.19-7.79,6.24-12.92,10.44-19.19,5.79-8.63,10.36-18.28,12.36-28.52,3.08-15.75-.19-31.9-8.06-45.78-4.63-8.15-10.69-15.78-17.89-21.82-.52-.44-1.05-.87-1.59-1.28-1.38-1.04-1.69,1.24-1.58,2.08.21,1.71,1.07,3.46,2.46,4.51"/>
    <path class="cls-1" d="M1116.33,632.7c.24.34.06-.25.04.43-.01.46-.06.89-.14,1.35-.22,1.13-.65,2.24-1.16,3.27-.54,1.08-1.19,2.15-1.94,3.1-1.28,1.62,1.82,7.39,3.15,5.71,4.19-5.3,5.09-12.23,1.15-17.94-.64-.92-1.73-1.61-2.32-.36-.6,1.26.54,3.46,1.23,4.45"/>
  </g>
</svg>