<?xml version="1.0" encoding="UTF-8"?>
<svg id="groen" xmlns="http://www.w3.org/2000/svg" viewBox="0 0 566.93 566.93">
  <defs>
    <style>
      .cls-1 {
        fill: #312783;
      }

      .cls-1, .cls-2, .cls-3 {
        stroke-width: 0px;
      }

      .cls-2 {
        fill: none;
      }

      .cls-3 {
        fill: #fff;
      }
    </style>
  </defs>
  <g>
    <path class="cls-1" d="M168.41,316.76c2.41,1.79,4.78,3.59,7.66,4.23,23.41,5.22,46.53-18.88,51.24-28.85,1.2-2.54-.59-4.04-3.96.61-4.03,5.55-10.47,2.13-17.73-.51-11.38-4.14-20.75,4.26-28.6,2.67-7.07-1.43-12.29-4.85-14.42-6.44-.51-.38-1.24-.08-1.35.56-.46,2.65-1.13,8.79.61,15.98,0,.03.01.05.02.08.21.64,2.96,9,6.54,11.66Z"/>
    <path class="cls-1" d="M168.26,319.17c1.51,1.13,3.03,2.27,4.71,3.15s3.37,1.29,5.18,1.56c3.24.49,6.55.44,9.79-.06,6.31-.98,12.25-3.6,17.64-6.96s9.92-7.21,14.09-11.67c2.99-3.2,5.96-6.74,7.84-10.73.69-1.47.82-3.19.67-4.79-.07-.77-.15-2.23-1.14-2.41s-2.06.99-2.62,1.59c-1.2,1.28-2.02,2.84-3.64,3.67-2.77,1.42-6.13.48-8.9-.45-3.63-1.22-7.11-3.02-10.97-3.39-6.7-.65-12.59,2.54-19.01,3.68-3.29.58-6.33-.1-9.45-1.19s-5.87-2.46-8.5-4.23c-.76-.51-1.82-1.68-2.67-.71-.71.81-.7,2.63-.82,3.68-.4,3.69-.39,7.42,0,11.11.57,5.4,2.27,10.66,5.25,15.23.71,1.09,1.51,2.12,2.55,2.92.55.43.66-1.52.68-1.75.04-.63.24-2.59-.38-3.08-3.34-2.59-5.11-7.41-6.38-11.31-.02-.06-.06-.18.02.08.13.44-.07-.34-.07-.34-.1-.47-.21-.94-.3-1.41-.19-1.02-.34-2.05-.43-3.09-.12-1.34-.16-2.69-.1-4.04.05-1.17.14-2.1.31-3.25.01-.1.02-.21.05-.31.15-.56-.06.24.02.26.35.08.51-.15.91.06s.73.52,1.08.76c2.23,1.5,4.62,2.78,7.12,3.78,2.87,1.16,6.07,2.26,9.21,2.05,5.77-.37,11.05-3.35,16.82-3.9,3.48-.34,6.73.27,9.99,1.49,3.04,1.14,6.13,2.56,9.38,2.96,2.78.35,5.31-.46,7.09-2.69.84-1.06,1.76-2.62,3.11-3.1.32-.11.55-.02.84-.05.05,0,.12.07.11.07-.52.1.54-3.97-.29-2.39-4.39,8.3-11.78,15.29-19.45,20.55-4.95,3.39-10.43,6.15-16.27,7.6-2.83.71-5.74,1.1-8.65,1.09-3.11-.01-6.49-.33-9.31-1.71-1.72-.85-3.25-2.02-4.78-3.16-.56-.41-.66,1.51-.68,1.75-.04.62-.24,2.61.38,3.08Z"/>
  </g>
  <g>
    <path class="cls-1" d="M206.8,147.14c-1.03.51-2.74.15-4.99,1.27-8.71,4.32-22.88,20.45-22.74,25.6l.03.06c.83,1.19,22.2-4.35,25.09-4.02,1.19.13,5.31,1.62,6.36,3.75.29.58.38,1.1.12,1.71-.84,2.03-8.86,12.76-11.5,14.07-2.06,1.02-6.25,1.5-6.89.53-.67-1.35,12.95-12.46,11.57-15.23-.03-.06-.1-.03-.13-.1-1.96-2.32-19.3,5.65-26.35,2.95-.9-.36-2.35-1.97-3.21-3.71-.61-1.23-.89-2.61-.57-3.58,1.36-4.21,12.87-19.89,24.48-25.66,4.06-2.02,7.54-1.65,10.69-.16.29.58-.81,1.93-1.97,2.51Z"/>
    <path class="cls-1" d="M231.42,168.93c-7.18,2.38-12.99-3.5-14.94-9.38-3.76-11.34,2.88-18.78,6.77-20.07,1.3-.43,2.73-.68,4.28.33,2.46-.82,6.95-1.24,11.23,9.4,2.38,7.18-1.05,17.64-7.34,19.73ZM227.61,144.18c-5.47,1.81-7.85,11.55-6.11,16.81,1.02,3.08,3.11,3.67,4.89,3.08,2.87-.95,5.79-4.95,6.25-7.68.53-2.98.06-7.83-.82-10.5-.09-.27-.18-.55-.27-.82-.82-1.78-2.84-1.26-3.94-.89Z"/>
    <path class="cls-1" d="M279.47,150.69c.88,4.82-11.07,15.07-14.82,15.76-4.74.87-11.25-1.08-12.83-9.65-2.49-13.53,7.58-33.61,17.04-37.11.2-.11.41-.15.62-.19,1.84-.34,3.8.76,3.97,1.69.05.28-.11.61-.51.83-3.47,1.81-17.42,21.51-14.85,35.53.39,2.12.88,5.18,3.5,4.7,4.32-.79,12.86-8.51,14.48-12.84.22-.41.53-.68,1.03-.77.78-.14,1.89.31,2.3,1.77.01.07.04.21.05.28Z"/>
    <path class="cls-1" d="M295.87,140.82c.6,9.7.33,17.01-1.25,17.1-1.29.08-2.68-2.5-3.26-3.69-1.24-2.52-2.43-12.48-2.84-19.09-.36-5.82-.55-6.6,1.75-6.75,2.88-.18,3.87.7,4.74,4.4.35,2.07.67,4.94.86,8.03Z"/>
    <path class="cls-1" d="M342.59,159.82c-.09,1.08-1.13,1.42-2.21,1.33-5.52-.48-4.05-4.11-6.25-13.77-7.46,1.88-20.58,2.34-20.58,2.34-2.1,3.43-7.56,16.33-8.25,16.78-.25.41-2.11.97-3.26.87-.43-.04-.78-.21-.82-.58.67-7.75,20.79-46.48,22.46-47.42,1.67-.94,3.65-1.27,5.23-1.14,1.36.12,2.48.58,2.93,1.27,3.79,5.46,10.46,32.78,10.74,39.52-.03.29.02.58,0,.8ZM327.18,123.29c-.95.06-7.47,12-11.72,21.82,11.25-3.87,17.63-3.32,17.63-3.32,0,0-5.34-18.46-5.91-18.51Z"/>
    <path class="cls-1" d="M372.53,173.25c-1.99,1.54-16.47,4.2-18.76,3.57-1.18-.33-2.63-1.55-4.33-3.81-.65-.63,4.38-22.92,8.61-38.26,2.37-8.61,3.72-14.58,6.15-13.91.97.27,2.12,1.26,2.54,2.72.06,1.14-.59,4.02-1.75,8.25-1.36,4.93-3.3,11.42-5.04,17.73-2.43,8.82-4.49,17.36-4.45,21.55,5.45,0,15.65-.69,15.37-.77,1.18.33,2.15,1.42,2.06,2.29-.06.21-.2.47-.4.64Z"/>
  </g>
  <g>
    <path class="cls-1" d="M274.19,196.77c-1.12.26-2.7-.49-5.15.07-9.48,2.17-27.03,14.53-28.1,19.57l.02.07c.53,1.36,22.6.96,25.34,1.96,1.13.41,4.78,2.82,5.31,5.14.14.63.12,1.16-.28,1.69-1.29,1.77-11.59,10.33-14.47,10.99-2.25.51-6.43,0-6.82-1.1-.34-1.47,15.5-9.09,14.81-12.1-.02-.07-.09-.05-.1-.12-1.36-2.72-20.09.98-26.31-3.29-.79-.56-1.82-2.46-2.25-4.36-.31-1.33-.26-2.75.28-3.61,2.31-3.78,17.17-16.34,29.8-19.23,4.42-1.01,7.72.15,10.43,2.34.14.63-1.24,1.69-2.5,1.98Z"/>
    <path class="cls-1" d="M290.33,209.06c1.08,9.66,1.17,16.97-.4,17.14-1.29.14-2.8-2.37-3.44-3.53-1.36-2.46-3.05-12.34-3.78-18.92-.65-5.8-.88-6.57,1.41-6.82,2.86-.32,3.9.51,4.96,4.16.45,2.05.91,4.9,1.25,7.98Z"/>
    <path class="cls-1" d="M339.84,197.98c0,.22-.08.43-.15.72-2.44,6.74-20.03,15.21-30.56,17.55,0,.22,0,.5,0,.79-.02,2.09.01,6.05-.02,8.79-.02,1.8.11,3.03-.46,3.02-1.08-.01-4.3-2.13-4.71-3.86-.76-3.03-1.17-12.4-1.08-21.11.09-8.86.68-16.99,1.69-17.19,3.82-.75,7.28-1.01,10.31-.98,9.5.1,14.95,3.17,17.95,4.86,3.58,2.05,6.79,4.82,7.06,7.13,0,.07,0,.22,0,.29ZM333.39,195.04c-3.29-2.19-7.95-4.54-17.67-4.64-1.87-.02-3.89.03-6.12.23,0,0-.36,14.11-.57,20.88,4.19-.89,25.03-11.2,25.07-15.52-.07-.36-.28-.65-.71-.94Z"/>
  </g>
  <path class="cls-1" d="M307.03,367.58c0-5.84-9.16-3.21-23.25,2.38-8.55,3.4-16.36,5.03-25.63,0-4.01-2.18-9.4,1.28-14.07-.13-1.47-.45-2.87.88-2.53,2.41,1.33,5.95,4.18,16.25,9.07,22.7l5,7.24c.04.06.09.13.14.19,5.15,6.16,14.1,7.86,21.26,4.04.07-.04.14-.08.2-.12l6.59-4.38s.06-.04.1-.06c25.61-14.64,23.13-34.26,23.13-34.26"/>
  <path class="cls-2" d="M176.46,317.99s5.4,2.68,11.52.55"/>
  <path class="cls-1" d="M222.99,282.94c.61-3.62,5.43-2.02,6.32-2.29,2.55-.75-4.1-3.7-7.2-3.25s-6.22,3.28-5.04,5.66,5.4,2.96,5.91-.12Z"/>
  <path class="cls-1" d="M242.92,264.77c-.15-2.57-2.54-2.19-3.11-2.37-1.62-.49,2.93-2.71,4.93-2.44s3.32,2.05,2.91,3.95c-.69,3.17-4.6,3.05-4.73.86Z"/>
  <g>
    <path class="cls-1" d="M241.34,271.71c-.36.5-1.41.3-1.98.2-1.46-.25-2.89-.78-4.27-1.32-4.64-1.81-9.08-4.16-13.43-6.57-10.76-5.97-21.37-12.7-30.84-20.59-2.33-1.94-4.86-4.11-6.41-6.6-.04-.06-.04-.14-.07-.19.61.95.69,3.57-.11,3.75.04,0,.18-.18.17-.17.38-.07.7-.15,1.1-.12,1.29.08,2.58.54,3.78.97,4.42,1.57,8.64,3.77,12.76,6,5.84,3.16,11.53,6.61,17.09,10.26s10.58,7.17,15.49,11.25c1.65,1.37,3.28,2.79,4.75,4.36.5.54.99,1.09,1.41,1.7.14.2.26.42.34.55.04.06.05.14.08.2.06.16.05.13-.03-.12-.48-1.33-.42-2.5.17-3.54-.49.88-.45,2.1-.38,3.08.01.19.4,2.25.68,1.75.86-1.55.72-4.19-.01-5.79-.58-1.26-1.62-2.32-2.59-3.3-3.66-3.68-7.91-6.81-12.12-9.83-5.92-4.24-12.05-8.18-18.33-11.87-5.18-3.04-10.48-5.97-16-8.37-1.74-.76-3.52-1.49-5.37-1.97-.83-.22-2.07-.59-2.89-.16-.46.24-.61.69-.72,1.18-.29,1.28-.27,2.78.04,4.05s1.13,2.28,1.98,3.22c3.2,3.56,7.17,6.49,11.01,9.32,5.77,4.25,11.78,8.19,17.92,11.89s12.05,7.05,18.43,9.82c1.88.81,3.81,1.62,5.81,2.08.78.18,2.26.56,2.84-.27.55-.78.44-2.18.38-3.08-.01-.19-.32-2.25-.68-1.75Z"/>
    <path class="cls-1" d="M138.15,374.15c-4.51-2.85-9.06-5.67-13.66-8.38-1.56-.92-3.14-1.84-4.73-2.71-.76-.42-1.79-1.2-2.67-1.34-1.32-.21-.9,3.04-.81,3.75.15,1.14.6,1.5,1.45,2.15,2.85,2.2,5.9,4.15,8.91,6.13,8.74,5.75,17.61,11.36,26.71,16.53,1.17.67,2.34,1.33,3.54,1.94.31.16,1.12.74,1.5.63.43-.12.48-.94.52-1.28.14-1.04.24-2.5-.21-3.48-.19-.4-.48-.64-.81-.91-1.94-1.58-4.1-2.93-6.18-4.31-4.48-2.97-9.02-5.86-13.56-8.73-.58-.37-.66,1.47-.68,1.75-.03.56-.24,2.68.38,3.08,5.25,3.32,10.51,6.65,15.65,10.13,1.22.82,2.44,1.65,3.61,2.54.3.23.59.47.87.71.07.06.13.16.21.21.03.02.03.06.06.08l-.05-.11c-.38-.7-.38-1.48.01-2.35-.6-1.14-.56-1.9.13-2.29.07-.03.09-.04.05-.03-.74-.46-1.77-.76-2.57-1.19-2.22-1.2-4.4-2.48-6.58-3.76-6.78-4.01-13.45-8.2-20.05-12.49-2.89-1.88-5.78-3.78-8.61-5.75-.87-.6-1.73-1.21-2.57-1.85-.25-.19-.5-.38-.73-.59-.56-.52-.27-.6-.07.71l-.2,3.42c-.28.99-.31.06-.07.33.06.06.3.11.38.14.45.18.88.42,1.31.64,1.53.8,3.03,1.66,4.52,2.53,4.96,2.89,9.84,5.91,14.68,8.97.58.37.66-1.47.68-1.75.03-.56.24-2.68-.38-3.08Z"/>
    <path class="cls-1" d="M183.99,235.51c-4.77,4.87-8.94,10.47-12.69,16.15-7.43,11.26-13.36,24.03-14.74,37.58-.78,7.64-.27,15.46,2.16,22.79,1.23,3.72,2.98,7.27,5.13,10.54.64.99,1.38,1.93,1.92,2.98.22.41.32.96.56,1.35.49.76-.3-1.15.02-1.04.02,0-.23.72-.2.65-.36.99-.88,1.93-1.42,2.83-4.34,7.18-8.81,14.27-13.22,21.41-4.66,7.54-9.36,15.06-13.97,22.63-.09.14-.17.28-.26.42-.41.66-.4,1.67-.4,2.41,0,.51-.1,2.09.4,2.41l1.61,1.02c.1.12.19.12.29,0,4.62-7.59,9.24-15.18,13.86-22.76,4.9-8.05,9.64-16.23,14.71-24.17.86-1.35,2.07-2.33,3.66-2.66,2.02-.43,4.34.4,6.37.63,3.79.43,7.62.43,11.4-.07,6.71-.88,13.08-3.35,18.79-6.94,10.56-6.64,18.59-16.77,24.73-27.49,3.54-6.19,6.74-12.78,8.95-19.58.03-.11.07-.21.1-.32.34-1.08.35-2.3.2-3.42-.04-.29-.44-1.91-.75-.9-1.81,5.77-4.43,11.37-7.28,16.69-5.8,10.8-13.38,21.08-23.41,28.3-5.52,3.97-11.79,6.88-18.48,8.2-3.64.72-7.36.98-11.07.8-1.96-.1-3.91-.31-5.85-.63-1.11-.18-2.21-.48-3.34-.32-1.24.17-2.44.79-3.34,1.66-.79.77-1.32,1.81-1.89,2.75l-2.96,4.86c-3.18,5.23-6.36,10.45-9.54,15.68-3.28,5.4-6.57,10.79-9.85,16.19-1.74,2.85-3.66,5.66-5.24,8.6-.12.23.23.1.11.03-.5-.31-1-.63-1.5-.95v4.82c3.98-6.45,7.96-12.9,11.94-19.34,5-8.09,9.99-16.19,14.99-24.28.73-1.19,1.45-2.38,2-3.67.95-2.24,1.12-4.81.74-7.2-.35-2.21-1.5-3.97-2.73-5.79-4.15-6.16-6.78-13.33-7.16-20.78-.15-2.93.08-6.16.64-9.38.58-3.39,1.49-6.71,2.61-9.96,2.18-6.3,5.15-12.3,8.61-17.98,2.81-4.63,5.94-9.06,9.32-13.28,1.75-2.18,3.64-4.22,5.46-6.33.09-.1.19-.2.28-.29.61-.62.43-2.29.38-3.08-.01-.23-.22-2.21-.68-1.75h0Z"/>
  </g>
  <path class="cls-1" d="M258.2,334.9c-.05.19-.42.27-.03.16.47-.13.3-.14.82-.2,1.13-.14,2.28-.14,3.41-.11,3.6.1,7.2.53,10.77,1.04,8.5,1.21,17.03,2.93,25.11,5.86,1.33.48,2.65.99,3.92,1.6.48.23.59.27,1.03.54.16.1.32.21.49.31.08.05.15.11.23.17.2.14-.32-.38-.09-.08.08.1.11.19-.06-.09l-.13-.16c.2.3.12.07-.25-.7-.19-.49-.45-1.07-.24-1.62.04-.1.08-.31.09-.22-.03-.17.37-.14-.02-.05-.25.06-.18.07-.19.07-.95.19-1.99.13-2.95.08-3.41-.16-6.8-.67-10.17-1.2-4.67-.73-9.33-1.57-13.95-2.54-4.38-.93-8.75-1.97-13.01-3.34-1.47-.47-2.93-.97-4.34-1.61-.6-.27-.59-.28-1.01-.53-.33-.19-.35-.32-.13-.06-.03-.04-.07-.07-.11-.11.5.6.96,1.5.89,2.3.1-1.14-.56-2.56-1.53-3.19-.89-.58-1.73-.2-1.82.88-.26,2.98,2.71,4.58,5.02,5.54,3.57,1.48,7.37,2.46,11.12,3.38,5.25,1.29,10.56,2.3,15.88,3.22,4.33.75,8.69,1.48,13.07,1.83,1.53.12,5,.75,6.11-.76.96-1.3-.08-3.37-1.03-4.36-.78-.82-1.78-1.37-2.78-1.89-3.22-1.66-6.75-2.75-10.22-3.75-4.97-1.43-10.02-2.5-15.11-3.39s-10.06-1.62-15.13-1.84c-1.54-.07-6.28-.68-6.84,1.52-.29,1.15.2,2.47,1.02,3.31.55.56,1.85,1.12,2.15-.04Z"/>
  <path class="cls-1" d="M304.66,345.98c.22.37-.25-.48-.02-.03.16.31.33.62.49.93.58,1.13,1.11,2.29,1.59,3.46.33.79.63,1.59.92,2.4.07.2.14.39.21.59-.18-.51.1.31.14.41.16.48.31.97.45,1.45.31,1.05.58,2.1.82,3.17.13.56.25,1.13.36,1.7.08.44.01.07,0-.01.02.13.05.26.07.39.06.37.12.73.18,1.1.18,1.25.32,2.5.4,3.75.03.43-.03-.61,0,.09,0,.15.01.29.02.44.01.29.02.59.03.88.01.75.01,1.49-.01,2.24,0,.3-.02.61-.04.91.03-.5-.04.45-.05.6-.06.74-.14,1.48-.25,2.21-.1.68-.19,1.27-.27,1.65-.15.76-.33,1.52-.52,2.27-1.69,6.44-5.32,12.28-9.95,17.11-3.04,3.17-6.53,5.9-10.21,8.3-2.09,1.36-4.34,2.46-6.27,4.05-2.72,2.26-4.91,5.12-6.07,8.49-.74,2.16-.95,4.38-1.16,6.64-.64,7.18-1.11,14.44-.76,21.65.05,1.03.11,2.06.2,3.09.04.43.08.85.13,1.28.02.18.04.36.07.54.23,1.32.78-1.25.28-1.5-.36-.17-.97-.18-1.36-.27l-7.56-1.61c-8.4-1.79-16.8-3.61-25.2-5.42-.53-.11-1-.15-1.34-.46l.49.64h-.01c.04.65.07,1.3.11,1.94-.1,1.02-.28.85.07.28.15-.24.29-.47.43-.71.32-.55.63-1.1.94-1.66.65-1.19,1.26-2.4,1.85-3.63,1.14-2.39,2.19-4.83,3.18-7.29,1.56-3.86,2.99-7.77,4.33-11.71,1.5-4.43,1.77-9,.36-13.51s-4.25-7.72-6.61-11.63c-2.93-4.86-5.23-10.17-6.35-15.74-.9-4.48-.93-8.49-.13-12.91.63-3.44,1.97-7.18,3.7-10.53,1.52-2.95,3.41-5.71,5.52-8.27,2.53-3.07,5.12-5.79,8.38-8.07,1.28-.89.64-5.68-.58-4.82-4.06,2.84-7.62,6.72-10.55,10.68-6.52,8.8-9.86,19.46-9.09,30.42.5,7.14,2.79,14.09,6.17,20.37,1.69,3.14,3.7,6,5.68,8.96,1.26,1.89,2.31,4.38,2.59,6.82.18,1.56-.08,3.01-.56,4.49-.04.12-.08.23-.11.34-.03.1-.07.2-.1.3s-.21.62-.11.33c.1-.3-.11.33-.14.4-.07.2-.14.39-.2.59-.18.53-.37,1.06-.56,1.59-.48,1.33-.96,2.66-1.46,3.99-2.28,6.06-4.81,11.98-8.09,17.56-.92,1.57-1.24,5.17.91,5.94.34.12.72.17,1.07.24l5.93,1.28c3.58.77,7.15,1.55,10.73,2.32s7.23,1.54,10.85,2.31l5.92,1.26c.35.07.73.21,1.1.17,2.23-.21,1.81-3.78,1.63-5.24-.75-6.07-.38-12.8.03-18.81.27-3.87.14-8.39,2.17-11.82,2.69-4.54,7.12-6.46,11.31-9.3,5.76-3.91,11.03-8.76,14.85-14.63,5.87-9.02,7.89-19.88,6.49-30.49-.83-6.23-2.68-12.5-5.64-18.06-.21-.4-.43-.8-.67-1.19-.59-1-1.36.35-1.51.9-.3,1.12-.2,2.42.39,3.42h0Z"/>
  <path class="cls-1" d="M348.16,316.14c1.32,2.71,2.64,5.42,3.96,8.13,3.15,6.47,6.31,12.95,9.46,19.42,3.84,7.87,7.67,15.74,11.51,23.61,3.32,6.81,6.63,13.61,9.95,20.42,1.6,3.29,3.06,6.71,4.83,9.92.02.04.04.09.07.14.45.92.71-.55.75-.9.13-.98.26-2.49-.2-3.42-1.32-2.71-2.64-5.42-3.96-8.13-3.15-6.47-6.31-12.95-9.46-19.42-3.84-7.87-7.67-15.74-11.51-23.61-3.32-6.81-6.63-13.61-9.95-20.42-1.6-3.29-3.06-6.71-4.83-9.92-.02-.04-.04-.09-.07-.14-.45-.92-.71.55-.75.9-.13.98-.26,2.49.2,3.42h0Z"/>
  <path class="cls-1" d="M409.61,294.42c2.9,8.78,5.81,17.56,8.71,26.34,4.6,13.9,9.19,27.8,13.79,41.7,1.06,3.21,2.12,6.41,3.18,9.62.34,1.02.72-.65.75-.9.15-1.1.15-2.36-.2-3.42-2.9-8.78-5.81-17.56-8.71-26.34-4.6-13.9-9.19-27.8-13.79-41.7-1.06-3.21-2.12-6.41-3.18-9.62-.34-1.02-.72.65-.75.9-.15,1.1-.15,2.36.2,3.42h0Z"/>
  <path class="cls-1" d="M363.18,314.54c3.51,7.85,7.02,15.71,10.53,23.56,5.6,12.53,11.19,25.05,16.79,37.58,1.29,2.88,2.58,5.77,3.87,8.65.86,1.92,4.46.91,3.55-1.12-3.51-7.85-7.02-15.71-10.53-23.56-5.6-12.53-11.19-25.05-16.79-37.58-1.29-2.88-2.58-5.77-3.87-8.65-.86-1.92-4.46-.91-3.55,1.12h0Z"/>
  <path class="cls-1" d="M394.67,299.07c3,8.08,6.01,16.16,9.01,24.24,4.77,12.83,9.54,25.65,14.31,38.48,1.09,2.94,2.19,5.88,3.28,8.82.32.85,1.42,1.39,2.26,1.01.94-.43.98-1.55.67-2.39-3-8.08-6.01-16.16-9.01-24.24-4.77-12.83-9.54-25.65-14.31-38.48-1.09-2.94-2.19-5.88-3.28-8.82-.32-.85-1.42-1.39-2.26-1.01-.94.43-.98,1.55-.67,2.39h0Z"/>
  <path class="cls-1" d="M378.83,307.65c3.26,8.6,6.52,17.19,9.78,25.79,5.19,13.68,10.38,27.37,15.57,41.05,1.18,3.12,2.36,6.23,3.54,9.35.48,1.27,4.1,1.66,3.42-.13-3.26-8.6-6.52-17.19-9.78-25.79-5.19-13.68-10.38-27.37-15.57-41.05-1.18-3.12-2.36-6.23-3.54-9.35-.48-1.27-4.1-1.66-3.42.13h0Z"/>
  <g>
    <path class="cls-1" d="M305.44,269.01c2.5,4.61,5,9.21,7.5,13.82,6,11.06,12.01,22.11,18.01,33.17,7.22,13.29,14.44,26.58,21.65,39.88,6.27,11.55,12.54,23.1,18.81,34.64,3.03,5.57,5.89,11.28,9.1,16.75.05.08.09.16.13.24.44.82,1.85,2.05,2.87,1.92,4.91-.62,9.79-1.78,14.56-3.06,11.41-3.05,22.51-7.34,32.95-12.87,7.4-3.92,14.46-8.48,21.03-13.67.32-.25.11-.87.02-1.14-1.49-4.9-2.98-9.79-4.47-14.69-3.58-11.76-7.16-23.52-10.74-35.28-4.33-14.23-8.66-28.45-12.99-42.68-3.74-12.29-7.48-24.59-11.22-36.88l-3.68-12.1c-.59-1.93-1.09-3.91-1.77-5.8-.03-.08-.05-.16-.07-.25-.32-1.06-2.64-3.21-3.79-2.15-4.78,4.42-10.34,8.14-15.83,11.59-13.99,8.78-29.27,15.52-45.13,20.11-11.91,3.44-24.15,5.64-36.51,6.57-2.24.17.86,3.9,2.43,3.78,20.81-1.58,41.31-6.65,60.4-15.11,11.71-5.2,22.99-11.61,33.19-19.39,1.78-1.36,3.57-2.74,5.22-4.27l-3.79-2.15c1.49,4.9,2.98,9.79,4.47,14.69,3.58,11.76,7.16,23.52,10.74,35.28,4.33,14.23,8.66,28.45,12.99,42.68,3.74,12.29,7.48,24.59,11.22,36.88,1.23,4.03,2.45,8.06,3.68,12.1.58,1.91,1.03,3.94,1.77,5.8.03.08.05.16.07.25l.02-1.14c-10.96,8.67-23.3,15.45-36.3,20.54-8.52,3.34-17.35,6.01-26.34,7.78-1.19.23-2.38.45-3.57.64-.2.03-.39.06-.59.09-.42.07.26-.12-.07.01-.1.04-.24.03-.34.05l2.87,1.92c-2.5-4.61-5-9.21-7.5-13.82-6-11.06-12.01-22.11-18.01-33.17-7.22-13.29-14.44-26.58-21.65-39.88-6.27-11.55-12.54-23.1-18.81-34.64-3.03-5.57-5.89-11.28-9.1-16.75-.05-.08-.09-.16-.13-.24-.48-.88-1.8-1.98-2.87-1.92-1.16.07-.82,1.16-.44,1.86Z"/>
    <path class="cls-1" d="M327.24,305.49c7.58-.45,15.17-1.72,22.6-3.23,15.73-3.19,31.3-8.08,45.36-15.92,8.5-4.74,16.42-10.6,22.86-17.94l-3.35-1.35c1.85,6.08,3.7,12.16,5.55,18.25,4.01,13.16,8.01,26.33,12.02,39.49,3.88,12.74,7.76,25.49,11.64,38.23l3.53,11.59c.27.89.47,1.86.83,2.72.01.04.09.41.13.41.26.03.26-.42.16-.45-.03,0-.13.11-.15.12-.27.11-.55.41-.79.58-7.22,5.28-14.93,9.96-22.87,14.07-5.53,2.87-11.21,5.51-17.1,7.55-5.56,1.93-11.28,3.36-17.01,4.68-3.21.74-6.43,1.45-9.65,2.17l3,1.21c-1.87-3.44-3.73-6.88-5.6-10.31-4.44-8.18-8.88-16.36-13.33-24.54-5.41-9.96-10.82-19.93-16.23-29.89-4.66-8.58-9.32-17.16-13.98-25.74-2.26-4.17-4.42-8.42-6.8-12.52-.03-.06-.06-.12-.1-.18-.41-.76-1.41-1.23-2.25-1.28-.56-.04-1.55.21-1.12.99,1.87,3.44,3.73,6.88,5.6,10.31,4.44,8.18,8.88,16.36,13.33,24.54,5.41,9.96,10.82,19.93,16.23,29.89,4.66,8.58,9.32,17.16,13.98,25.74,2.26,4.17,4.42,8.42,6.8,12.52.03.06.06.12.1.18.54,1,1.95,1.45,3,1.21,11.52-2.58,23.12-4.98,33.99-9.73,10.08-4.4,19.73-9.85,28.84-16.01,1.79-1.21,3.58-2.44,5.31-3.76.15-.13.21-.29.19-.48-1.12-3.69-2.24-7.37-3.37-11.06-2.68-8.81-5.36-17.62-8.04-26.42-3.24-10.65-6.48-21.3-9.72-31.94-2.8-9.21-5.6-18.41-8.41-27.62-1.36-4.48-2.73-8.97-4.09-13.45-.02-.07-.04-.13-.06-.2-.28-.93-2.49-2.34-3.35-1.35-11.34,12.91-26.99,21.21-43.01,26.85-12.56,4.42-25.66,7.36-38.87,9.02-2.57.32-5.15.63-7.73.78-.8.05-.96.71-.52,1.29.53.69,1.62,1.04,2.46.99Z"/>
    <path class="cls-1" d="M402.85,228.1c.04.1.06.19.08.29.03.13.05-.3-.02.02-.03.11-.04.23-.06.35-.07.34.07-.09-.09.25-.34.68-.83,1.28-1.34,1.84-1.62,1.74-3.58,3.16-5.53,4.49-6.55,4.47-13.69,8.12-20.84,11.54-9.54,4.56-19.32,8.62-29.26,12.23-8.4,3.05-16.95,5.85-25.68,7.79-2.88.64-5.81,1.19-8.76,1.4-.56.04-1.13.07-1.69.07-.24,0-.47,0-.71,0-.27,0-.56-.03-.43-.02-.37-.04-.73-.11-1.1-.18-.47-.09.35.18-.05-.02-.43-.22.51.3.04.02.6.35.88.7,1.11,1.15.19.36-.06-.06,0-.12.03-.03-.07.32.03-.06.11-.41.04-.3.14-.51.16-.33.36-.63.58-.93,1.23-1.66,2.96-3,4.61-4.21,6.1-4.47,12.92-8.01,19.68-11.35,9.3-4.59,18.86-8.65,28.56-12.3,8.72-3.28,17.59-6.28,26.65-8.49,3.18-.78,6.4-1.47,9.66-1.85,1.15-.13,2.31-.23,3.47-.23.24,0,.47,0,.71.01.11,0,.22,0,.33.02.28.02-.26-.03.01,0,.41.04.82.11,1.22.21,0,0-.4-.16.03.03-.49-.21-.06,0-.34-.2-.22-.15-.41-.31-.59-.51-.04-.04-.37-.57-.24-.29.45,1.01,1.74,1.95,2.83,2.12s1.45-.45,1.04-1.38c-.91-2.07-3.39-3.19-5.51-3.46-2.54-.32-5.14-.01-7.66.38-8.46,1.31-16.77,3.87-24.87,6.59-10.65,3.58-21.12,7.75-31.33,12.42-8.19,3.74-16.34,7.76-23.9,12.67-2.39,1.55-4.79,3.21-6.85,5.18-1.05,1.01-2.42,2.39-2.48,3.95-.09,2.28,2.45,3.94,4.37,4.5,2.16.64,4.53.48,6.74.24,7.92-.86,15.75-3.22,23.32-5.63,10.71-3.42,21.21-7.48,31.49-12.02,8.62-3.8,17.16-7.91,25.21-12.82,2.73-1.67,5.42-3.43,7.88-5.47,1.36-1.13,2.89-2.42,3.59-4.09.27-.64.41-1.34.16-2.01-.41-1.11-1.36-1.99-2.47-2.4-.58-.22-2.14-.33-1.72.8Z"/>
  </g>
  <path class="cls-2" d="M302.29,371.23c1.15,4.31-4.63,7.56-4.63,7.56"/>
  <path class="cls-3" d="M173.77,319.21c3.71,1.83,8.37,1.95,12.24.64.7-.24-.84-3.61-1.83-3.27-2.62.89-5.39,1.03-8.1.51-.85-.16-1.69-.39-2.51-.68-.14-.05-.29-.11-.43-.16-.12-.04-.1-.04,0,0-.05-.02-.1-.04-.15-.06-.08-.04-.17-.07-.25-.11-.71-.35-.55.61-.42,1.01.22.69.74,1.78,1.45,2.13h0Z"/>
  <path class="cls-3" d="M301.68,373.47c.06.28.08-.06-.09.36-.12.3-.27.56-.44.83-.43.67-.99,1.27-1.59,1.8s-1.31,1.06-2.04,1.48c-1.2.68-.72,5.05.53,4.34,4.01-2.28,6.39-6.44,5.35-11.07-.16-.73-.67-1.43-1.35-.81s-.53,2.29-.36,3.08h0Z"/>
</svg>