<?xml version="1.0" encoding="UTF-8"?>
<svg id="alternatieve_logo_s" data-name="alternatieve logo&amp;apos;s" xmlns="http://www.w3.org/2000/svg" xmlns:xlink="http://www.w3.org/1999/xlink" viewBox="0 0 1051.37 620.03">
  <defs>
    <style>
      .cls-1 {
        fill: none;
      }

      .cls-1, .cls-2 {
        stroke-width: 0px;
      }

      .cls-3 {
        clip-path: url(#clippath);
      }

      .cls-2 {
        fill: #fff;
      }
    </style>
    <clipPath id="clippath">
      <rect class="cls-1" x="207" y="125.72" width="636.95" height="368.59"/>
    </clipPath>
  </defs>
  <g class="cls-3">
    <path class="cls-2" d="M328.18,168.67c-3.58.89-8.66-1.41-16.47.53-30.18,7.48-85.61,48.03-88.71,64.22l.05.22c1.78,4.3,72.33,1.77,81.14,4.8,3.63,1.24,15.45,8.75,17.28,16.12.5,2.01.44,3.69-.79,5.42-4.03,5.74-36.48,33.71-45.64,35.99-7.15,1.77-20.55.35-21.89-3.12-1.16-4.69,49.04-29.95,46.65-39.56-.05-.22-.28-.16-.33-.39-4.51-8.62-64.18,4.28-84.32-9-2.56-1.74-5.96-7.78-7.45-13.81-1.06-4.25-.99-8.77.69-11.56,7.18-12.22,53.95-53.23,94.18-63.2,14.08-3.49,24.68.05,33.49,6.88.5,2.01-3.86,5.47-7.89,6.46"/>
    <path class="cls-2" d="M395.21,173.83c-18.32,1.88-32.51,30.65-30.7,48.28,1.06,10.31,7.18,13.62,13.14,13.01,9.62-.98,21.51-11.46,24.83-19.67,3.72-8.95,5.6-24.42,4.69-33.35-.09-.92-.19-1.83-.28-2.75-1.32-6.12-8.02-5.89-11.68-5.52M389.98,253.76c-24.05,2.47-38.15-19.93-40.17-39.63-3.9-38.03,21.97-56.65,35.03-57.99,4.35-.45,9.01-.23,13.14,3.98,8.25-.85,22.55.93,28.58,37.12,2.46,24.05-15.5,54.37-36.57,56.53"/>
    <path class="cls-2" d="M552.66,230.02c-.57,15.65-44.98,39.4-57.18,38.96-15.42-.56-34.4-11.15-33.39-39,1.58-43.96,46.92-99.71,78.89-104.09.7-.2,1.39-.18,2.08-.15,5.99.22,11.34,5.02,11.23,8.01-.03.92-.75,1.82-2.15,2.23-12.1,3.25-69.29,55.12-70.93,100.69-.25,6.91-.84,16.8,7.68,17.1,14.04.5,46.04-17.7,54.09-30.09.96-1.11,2.14-1.76,3.75-1.71,2.54.1,5.68,2.28,5.97,7.13,0,.23-.03.69-.03.92"/>
    <path class="cls-2" d="M610.71,210.53c-4.84,30.71-10.74,53.33-15.74,52.55-4.09-.65-6.64-9.67-7.62-13.79-2.12-8.73,1.04-40.64,4.34-61.57,2.9-18.43,2.84-21,10.13-19.86,9.1,1.44,11.59,4.86,11.77,17.02-.35,6.7-1.33,15.88-2.88,25.66"/>
    <path class="cls-2" d="M720.61,177.44c-3-.45-31.63,32.31-51.69,60.05,37.8-4.31,57.36,1.84,57.36,1.84,0,0-3.91-61.34-5.67-61.89M743.47,302.18c-1.04,3.29-4.53,3.65-7.82,2.61-16.92-5.32-9.81-15.64-10-47.32-24.61.72-65.9-6.93-65.9-6.93-8.94,9.26-34.89,45.77-37.35,46.68-1.07,1.11-7.26,1.58-10.77.48-1.31-.42-2.28-1.2-2.15-2.37,7.45-23.73,97.07-130.76,102.94-132.54,5.87-1.77,12.28-1.45,17.12.07,4.17,1.31,7.35,3.52,8.26,5.98,8.06,19.67,10,109.59,6.22,130.85-.28.88-.33,1.83-.54,2.49"/>
    <path class="cls-2" d="M827.68,364.85c-7.3,3.44-54.34,1.72-61.05-1.83-3.46-1.83-7.16-6.65-10.89-14.88-1.59-2.41,29.52-68.55,53.33-113.53,13.36-25.24,21.71-42.97,28.83-39.2,2.85,1.51,5.75,5.39,6.04,10.24-.6,3.59-4.61,12.15-11.18,24.56-7.65,14.45-18.19,33.37-28,51.89-13.68,25.85-26.02,51.11-28.79,64.24,17.01,3.8,49.35,8.67,48.54,8.24,3.46,1.83,5.74,5.91,4.85,8.56-.32.61-.96,1.32-1.69,1.71"/>
    <path class="cls-2" d="M504.28,370.29c-3.68.03-8.08-3.4-16.14-3.34-31.09.22-94.47,26.68-101.28,41.7v.23c.72,4.6,69.91,18.63,77.78,23.64,3.24,2.05,12.98,12.12,13.03,19.72.01,2.07-.44,3.69-2.04,5.08-5.26,4.65-43.36,24.26-52.8,24.32-7.37.05-20.07-4.47-20.55-8.15-.04-4.84,54.69-17.66,54.62-27.56,0-.23-.23-.23-.23-.46-2.37-9.43-63.41-10.85-79.88-28.46-2.09-2.29-3.98-8.95-4.02-15.17-.03-4.37,1.09-8.76,3.37-11.08,9.83-10.2,64.91-39.15,106.36-39.43,14.51-.1,23.99,5.82,30.97,14.52.01,2.08-5.04,4.41-9.19,4.44"/>
    <path class="cls-2" d="M546.21,419.83c-3.31,30.91-8.08,53.8-13.12,53.26-4.12-.44-7.11-9.33-8.29-13.4-2.55-8.61-.98-40.64,1.28-61.71,1.98-18.55,1.79-21.12,9.12-20.33,9.16.98,11.82,4.28,12.61,16.41-.03,6.71-.55,15.92-1.6,25.77"/>
    <path class="cls-2" d="M690.36,405.81c-8.76-9.13-21.67-19.69-51.96-26.72-5.83-1.35-12.17-2.59-19.27-3.53,0,0-10.88,43.82-16.22,64.8,13.69.1,85.9-17.66,89.02-31.12.04-1.17-.43-2.23-1.57-3.43M708.47,419.47c-.16.67-.54,1.29-.97,2.14-12.3,19.37-73.06,33.65-107.59,33.67-.16.68-.36,1.57-.57,2.47-1.51,6.51-4.15,18.9-6.13,27.42-1.3,5.61-1.73,9.53-3.53,9.11-3.36-.78-11.95-9.63-12.05-15.33-.28-10,4.91-39.53,11.21-66.67,6.4-27.6,13.86-52.59,17.15-52.53,12.46.29,23.44,1.89,32.86,4.08,29.62,6.87,44.48,20.25,52.71,27.6,9.76,8.88,17.88,19.76,17.11,27.14-.05.23-.16.67-.21.9"/>
  </g>
</svg>